<svg xmlns="http://www.w3.org/2000/svg" xmlns:xlink="http://www.w3.org/1999/xlink" width="127" height="73" viewBox="0 0 127 73">
  <defs>
    <path id="logo-a" d="M71.9469627,22.5349418 C70.2134003,-3.87077191 52.6276429,-7.07046664 19.1896905,12.9358577 C-30.9672381,42.9453441 28.1009071,81.2395617 71.9469627,63.5324147 C99.3545791,51.3245892 50.934358,47.4352829 33.3734908,39.5942261 C20.1637187,33.6959654 28.6165405,9.2740904 50.5140423,26.0081986 C65.1123957,37.1642851 72.2567025,36.0065329 71.9469627,22.5349418 Z"/>
    <path id="logo-c" d="M28.4066211,59.5141442 C-0.879137708,50.5282107 -17.1903867,2.49811584 28.4066211,22.145233 C58.8046263,35.2433111 85.0026835,29.2141923 107.000793,4.05787661 C111.714333,-1.96257672 119.391345,-0.70633585 116.829565,4.05787661 C89.8482111,50.8374417 60.3738964,69.3228642 28.4066211,59.5141442 Z"/>
  </defs>
  <g fill="none" fill-rule="evenodd">
    <g transform="translate(45.861 4.541)">
      <mask id="logo-b" fill="#fff">
        <use xlink:href="#logo-a"/>
      </mask>
      <use fill="#3D6E97" xlink:href="#logo-a"/>
      <path fill="#12214E" d="M5.38829862,55.2531145 L18.3247439,63.5229693 C29.06469,58.718633 36.1663941,50.6537647 39.6298561,39.3283644 C43.0933181,28.0029642 31.6794656,33.3112142 5.38829862,55.2531145 Z" mask="url(#logo-b)"/>
    </g>
    <mask id="logo-d" fill="#fff">
      <use xlink:href="#logo-c"/>
    </mask>
    <use fill="#06FFCE" xlink:href="#logo-c"/>
    <path fill="#014D3E" d="M75.545618,26.1560836 C76.9137571,23.1346585 81.3103655,21.6418237 88.7354431,21.6775794 C99.8730596,21.7312128 106.367451,43.2210292 93.8890154,34.7441692 C85.5700581,29.0929291 79.4555923,26.2302339 75.545618,26.1560836 Z" mask="url(#logo-d)"/>
    <path fill="#3D6E97" d="M79.1114637,25.3757099 C83.2048595,23.7416363 89.1222323,24.3745148 96.9225632,30.1315095 C111.795544,41.1084374 119.074251,39.9692778 118.758684,26.7140307 C116.992509,0.732373466 99.0759253,-2.41593649 65.0089314,17.2691008 C58.4506187,21.0587111 54.6261876,24.6870072 51.4657465,28.6114418 C61.120832,30.0304771 70.0809594,28.8341649 79.1114637,25.3757099 Z"/>
  </g>
</svg>
