<?xml version="1.0" encoding="UTF-8"?>
<svg width="112px" height="61px" viewBox="0 0 112 61" version="1.1" xmlns="http://www.w3.org/2000/svg" xmlns:xlink="http://www.w3.org/1999/xlink">
    <!-- Generator: Sketch 51.1 (57501) - http://www.bohemiancoding.com/sketch -->
    <title>Logo Copy</title>
    <desc>Created with Sketch.</desc>
    <defs>
        <path d="M62.8195085,19.2130205 C61.3058722,-3.3001736 45.9511081,-6.02819485 16.7552164,11.0289567 C-27.0386213,36.6146841 24.5359235,69.2638735 62.8195085,54.1669729 C86.7500947,43.7587277 44.4726395,40.4427519 29.139608,33.7575612 C17.6056757,28.728775 24.9861418,7.90697797 44.1056466,22.1742774 C56.8519996,31.6858227 63.0899536,30.698737 62.8195085,19.2130205 Z" id="path-1"></path>
        <path d="M24.6930123,50.8221775 C-0.764207688,43.1486284 -14.9430806,2.13326913 24.6930123,18.9109493 C51.1170742,30.0960694 73.8902491,24.9474959 93.0125369,3.46522879 C97.1098743,-1.67594483 103.783267,-0.603176379 101.55639,3.46522879 C78.1023189,43.4126966 52.481193,59.1983462 24.6930123,50.8221775 Z" id="path-3"></path>
    </defs>
    <g id="Logo-Copy" stroke="none" stroke-width="1" fill="none" fill-rule="evenodd">
        <g id="Group">
            <g id="Path-123" transform="translate(40.000000, 3.000000)">
                <mask id="mask-2" fill="white">
                    <use xlink:href="#path-1"></use>
                </mask>
                <use id="Mask" fill="#3D6E97" xlink:href="#path-1"></use>
                <path d="M4.7047194,47.1081411 L16,54.1589199 C25.3774374,50.0628005 31.5781934,43.1867907 34.6022679,33.5308907 C37.6263425,23.8749906 27.660493,28.4007407 4.7047194,47.1081411 Z" id="Path-2" fill="#12214E" mask="url(#mask-2)"></path>
            </g>
            <g id="Path-56">
                <mask id="mask-4" fill="white">
                    <use xlink:href="#path-3"></use>
                </mask>
                <use id="Mask" fill="#FF6B6B" xlink:href="#path-3"></use>
                <path d="M65.6695095,22.3360201 C66.8587912,19.7558704 70.6806292,18.4810623 77.1350235,18.5115959 C86.816615,18.5573962 92.4619923,36.9086517 81.6148673,29.6698265 C74.3834506,24.843943 69.0683313,22.3993409 65.6695095,22.3360201 Z" fill="#5B162C" mask="url(#mask-4)"></path>
            </g>
            <path d="M68.6944403,21.2820589 C72.2354554,19.8481917 77.3543123,20.4035301 84.1020326,25.4551787 C96.9679887,35.0872152 103.264475,34.0876252 102.991493,22.4564089 C101.463653,-0.341979831 85.9648107,-3.10455935 56.4949648,14.1686703 C50.8216593,17.4939781 46.7339575,20.9371058 44,24.3807193 C52.3521864,25.6258947 60.8825513,24.3167846 68.6944403,21.2820589 Z" id="Path-121-Copy-4" fill="#3D6E97"></path>
        </g>
    </g>
</svg>