<svg xmlns="http://www.w3.org/2000/svg" width="50" height="53" viewBox="0 0 50 53">
  <g fill="none" fill-rule="evenodd">
    <path fill="#0651FF" d="M0.630280427,8.65529324 L3.61050629,34.4392015 C3.72873044,35.4620369 4.23682541,36.3998888 5.0290486,37.0575754 L23.4234568,52.3282162 L23.4234568,21.6358733 L0.630280427,8.65529324 Z"/>
    <path fill="#0B02E2" d="M23.4236878,21.7241243 L23.4236878,52.3243654 L45.7591564,39.2094177 C46.9011184,38.5388801 47.6371933,37.3466169 47.7249812,36.0252572 L49.5548228,8.48296855 L23.4236878,21.7241243 Z"/>
    <path fill="#5BB8FC" d="M0.627093248,8.66124939 L23.4405852,21.7657876 L49.5610197,8.48586589 L28.7678824,0.628965177 C27.4723573,0.139437679 26.0473754,0.113155066 24.7346796,0.554576086 L0.627093248,8.66124939 Z"/>
    <path fill="#0B02E2" d="M8.79439052 23C10.1653608 23 11.1449486 21.4329966 10.9823612 19.5 10.8197738 17.5670034 9.57657973 16 8.20560948 16 6.83463923 16 5.85505138 17.5670034 6.01763877 19.5 6.18022617 21.4329966 7.42342027 23 8.79439052 23zM16.7266821 29C18.1016173 29 19.1147335 27.4329966 18.9895404 25.5 18.8643473 23.5670034 17.6482531 22 16.2733179 22 14.8983827 22 13.8852665 23.5670034 14.0104596 25.5 14.1356527 27.4329966 15.3517469 29 16.7266821 29z"/>
    <path fill="#0F099B" d="M30.4987648 30C32.4322162 30 33.9997726 28.4329966 34 26.5 34.0002274 24.5670034 32.4337774 23 30.5012358 23 28.5686942 23 27.0011379 24.5670034 27.0000006 26.5 26.9988634 28.4329966 28.5653135 30 30.4987648 30zM41.5014004 25C43.4348518 25 45.0012279 23.4329966 44.9999993 21.5 44.9987706 19.5670034 43.4311403 18 41.498599 18 39.5660576 18 37.9996815 19.5670034 38 21.5 38.0003186 23.4329966 39.5679489 25 41.5014004 25zM41.5012346 37C43.4346857 37 45.0011361 35.4329966 44.9999994 33.5 44.9988627 31.5670034 43.4313066 30 41.4987648 30 39.566223 30 37.9997727 31.5670034 38 33.5 38.0002273 35.4329966 39.5677835 37 41.5012346 37zM29.4986012 42C31.4320522 42 32.9996818 40.4329966 33 38.5 33.0003181 36.5670034 31.4339413 35 29.5013995 35 27.5688576 35 26.001228 36.5670034 26.0000007 38.5 25.9987735 40.4329966 27.5651502 42 29.4986012 42z"/>
    <path fill="#0B02E2" d="M8.79439052 30C10.1653608 30 11.1449486 28.4329966 10.9823612 26.5 10.8197738 24.5670034 9.57657973 23 8.20560948 23 6.83463923 23 5.85505138 24.5670034 6.01763877 26.5 6.18022617 28.4329966 7.42342027 30 8.79439052 30zM16.7266821 37C18.1016173 37 19.1147335 35.4329966 18.9895404 33.5 18.8643473 31.5670034 17.6482531 30 16.2733179 30 14.8983827 30 13.8852665 31.5670034 14.0104596 33.5 14.1356527 35.4329966 15.3517469 37 16.7266821 37zM9.23551242 37C10.3322886 37 11.1159589 35.6568542 10.985889 34 10.8558191 32.3431458 9.86126378 31 8.76448758 31 7.66771139 31 6.8840411 32.3431458 7.01411102 34 7.14418094 35.6568542 8.13873622 37 9.23551242 37zM17.1813457 43C18.2812938 43 19.0917868 41.6568542 18.9916323 40 18.8914779 38.3431458 17.9186025 37 16.8186543 37 15.7187062 37 14.9082132 38.3431458 15.0083677 40 15.1085221 41.6568542 16.0813975 43 17.1813457 43z"/>
    <ellipse cx="15.5" cy="9" fill="#C7E7FE" rx="3.5" ry="2"/>
    <ellipse cx="26.5" cy="6" fill="#C7E7FE" rx="3.5" ry="2"/>
    <ellipse cx="24.5" cy="10" fill="#C7E7FE" rx="3.5" ry="2"/>
    <ellipse cx="34.5" cy="10" fill="#C7E7FE" rx="3.5" ry="2"/>
    <ellipse cx="23.5" cy="14" fill="#C7E7FE" rx="3.5" ry="2"/>
  </g>
</svg>
