<svg xmlns="http://www.w3.org/2000/svg" width="201" height="55" viewBox="0 0 201 55">
  <g fill="none" fill-rule="evenodd" transform="translate(1)">
    <polygon fill="#DDA0A0" stroke="#DEA09F" points="172.855 16.973 172.855 8.789 175.613 5.103 177.351 6.177 175.95 9.781 176.835 13.866"/>
    <path fill="#FFC4C4" stroke="#FFC4C4" stroke-linecap="square" stroke-linejoin="bevel" d="M109.795769,36.1649224 L169.967136,22.6771256 L179.576819,6.47214802 L186.925286,0.790334461 L190.843113,3.77743335 L190.004416,5.0320062 L186.925286,3.77743335 L184.098373,6.47214802 C181.947105,8.54706629 180.535822,10.2031088 179.864524,11.4402755 L180.416577,13.257498 L188.321812,5.61675001 L192.94984,5.0320062 L194.232196,6.47214802 L194.232196,7.80639204 L192.94984,7.80639204 L191.699441,7.08522117 L189.330424,8.52469553 L183.797905,14.5938621 L185.501358,15.3658281 L192.118085,10.2302798 L196.987334,8.52469553 L198.893906,8.52469553 L199.434847,10.2302798 L196.987334,11.4402755 L193.613766,13.257498 L187.148744,18.1713066 L189.330424,18.4776284 L195.823273,15.0950713 L197.505405,12.5665426 L199.143348,12.5665426 L198.201012,17.1268485 L190.843113,22.1567716 L183.330869,28.5909416 L179.576819,32.3783578 L168.115103,35.0158997 L109.795769,54.3636792 L0.249288667,46.610128 L0.249288667,32.3783578 L109.795769,36.1649224 Z"/>
  </g>
</svg>
