<svg xmlns="http://www.w3.org/2000/svg" width="299" height="135" viewBox="0 0 299 135">
  <g fill="none" fill-rule="evenodd" transform="translate(0 1)">
    <polygon fill="#DDA0A0" stroke="#DDA0A0" points="141.069 31.688 106.286 20.722 85.933 31.998 85.933 43.539 97.187 48.882 108.511 43.539 109.973 34.802 111.442 43.539 123.643 48.882 125.737 43.539 127.58 51.924 142.486 59.062 172.933 55.833" transform="rotate(20 129.433 39.892)"/>
    <path fill="#FFC4C4" stroke="#FFC4C4" d="M135.638295,0.21314135 L91.94474,0.21314135 L65.6062012,19.5608061 L31.4915903,19.5608061 L19.6685445,8.74357324 L9.89507976,8.74357324 L9.89507976,19.5608061 L24.9079757,36.5529081 L31.4915903,39.8983185 L65.6062012,41.8832099 L88.5145385,34.0478327 L91.94474,38.0544788 L65.6062012,50.0554396 L37.2878655,44.5118287 L31.4915903,46.1863811 L26.7163513,41.8832099 L19.6685445,34.0478327 L7.81940874,26.6789666 L3.32908296,36.5529081 L19.6685445,58.8729077 L65.6062012,67.8279634 L91.94474,58.8729077 L88.5145385,65.382027 L65.6062012,73.7305699 L19.6685445,62.2420202 L9.89507976,50.0554396 L3.32908296,50.0554396 L0.62151679,53.7471917 L6.17395225,71.1628733 L16.1957967,78.2461744 L62.7659349,91.9944511 L88.5145385,84.0591008 L85.5890495,89.0610406 L59.7426999,98.7133215 L37.2878655,94.3234713 L31.4915903,86.0147078 L21.7726131,86.0147078 L19.6685445,91.9944511 L29.2152121,107.335187 L59.7426999,115.040844 L93.8888306,104.532664 L153.326966,75.9351191 L172.969048,62.2420202 L182.141465,71.1628733 L192.935657,73.7305699 L204.971446,78.2461744 L297.860211,132.808805 L297.860211,51.2797511 L135.638295,0.21314135 Z" transform="matrix(1 0 0 -1 0 133.022)"/>
  </g>
</svg>
