<svg xmlns="http://www.w3.org/2000/svg" width="301" height="83" viewBox="0 0 301 83">
  <g fill="none" fill-rule="evenodd" transform="translate(1)">
    <polygon fill="#DDA0A0" stroke="#DEA09F" points="259.282 25.46 259.282 13.183 263.419 7.655 266.026 9.265 263.925 14.671 265.253 20.798"/>
    <path fill="#FFC4C4" stroke="#FFC4C4" stroke-linecap="square" stroke-linejoin="bevel" d="M164.693654,54.2473836 L254.950704,34.0156884 L269.365228,9.70822203 L280.387929,1.18550169 L286.264669,5.66615002 L285.006623,7.5480093 L280.387929,5.66615002 L276.147559,9.70822203 C272.920658,12.8205994 270.803733,15.3046632 269.796786,17.1604133 L270.624866,19.8862471 L282.482718,8.42512502 L289.42476,7.5480093 L291.348294,9.70822203 L291.348294,11.7095881 L289.42476,11.7095881 L287.549162,10.6278318 L283.995635,12.7870433 L275.696857,21.8907931 L278.252037,23.0487422 L288.177127,15.3454197 L295.481001,12.7870433 L298.340859,12.7870433 L299.152271,15.3454197 L295.481001,17.1604133 L290.420649,19.8862471 L280.723116,27.2569599 L283.995635,27.7164426 L293.734909,22.6426069 L296.258108,18.8498139 L298.715021,18.8498139 L297.301518,25.6902728 L286.264669,33.2351574 L274.996304,42.8864124 L269.365228,48.5675367 L252.172655,52.5238496 L164.693654,81.5455189 L0.373933001,69.915192 L0.373933001,48.5675367 L164.693654,54.2473836 Z"/>
  </g>
</svg>
