<svg xmlns="http://www.w3.org/2000/svg" width="66" height="59" viewBox="0 0 66 59">
  <g fill="none" fill-rule="evenodd">
    <polygon fill="#EFEFEF" stroke="#979797" points="14.262 .851 63.442 31.158 41.6 56.209 1.002 19.72"/>
    <polygon fill="#DDD" stroke="#DDD" stroke-linejoin="bevel" points="41.763 58.019 .993 21.857 .827 19.523 41.763 55.888"/>
    <polygon fill="#ACACAC" stroke="#ACACAC" stroke-linejoin="bevel" points="63.642 30.955 64.943 36.709 41.691 58.233 41.691 56.136"/>
    <polygon fill="#FFF" points="10.176 27.118 11.46 24.69 30.92 41.79 29.34 44.33"/>
    <g fill="#FFF" transform="rotate(40 -15.947 16.027)">
      <polygon points=".243 -.045 4.305 -.121 4.305 3.152 .243 3.077"/>
      <polygon points="5.32 -.139 9.382 -.215 9.382 3.246 5.32 3.171"/>
      <polygon points="10.398 -.234 14.459 -.309 14.459 3.34 10.398 3.265"/>
      <polygon points="15.475 -.328 19.537 -.403 19.537 3.435 15.475 3.359"/>
      <polygon points="20.552 -.422 24.614 -.498 24.614 3.529 20.552 3.454"/>
      <polygon points="25.629 -.516 29.691 -.592 29.691 3.623 25.629 3.548"/>
      <polygon points="30.707 -.611 34.768 -.686 34.768 3.717 30.707 3.642"/>
      <polygon points="35.784 -.705 39.846 -.78 39.846 3.812 35.784 3.736"/>
      <polygon points="40.861 -.799 44.923 -.874 44.923 3.906 40.861 3.83"/>
      <polygon points="45.938 -.893 50 -.969 50 4 45.938 3.925"/>
    </g>
    <g fill="#FFF" transform="rotate(36 -5.096 20.968)">
      <polygon points=".243 -.045 4.305 -.121 4.305 3.152 .243 3.077"/>
      <polygon points="5.32 -.139 9.382 -.215 9.382 3.246 5.32 3.171"/>
      <polygon points="10.398 -.234 14.459 -.309 14.459 3.34 10.398 3.265"/>
      <polygon points="15.475 -.328 19.537 -.403 19.537 3.435 15.475 3.359"/>
      <polygon points="20.552 -.422 24.614 -.498 24.614 3.529 20.552 3.454"/>
      <polygon points="25.629 -.516 29.691 -.592 29.691 3.623 25.629 3.548"/>
      <polygon points="30.707 -.611 34.768 -.686 34.768 3.717 30.707 3.642"/>
      <polygon points="35.784 -.705 39.846 -.78 39.846 3.812 35.784 3.736"/>
      <polygon points="40.861 -.799 44.923 -.874 44.923 3.906 40.861 3.83"/>
      <polygon points="45.938 -.893 50 -.969 50 4 45.938 3.925"/>
    </g>
    <g fill="#FFF" transform="rotate(34 1.086 24.653)">
      <polygon points=".243 -.045 4.305 -.121 4.305 3.152 .243 3.077"/>
      <polygon points="5.32 -.139 9.382 -.215 9.382 3.246 5.32 3.171"/>
      <polygon points="10.398 -.234 14.459 -.309 14.459 3.34 10.398 3.265"/>
      <polygon points="15.475 -.328 19.537 -.403 19.537 3.435 15.475 3.359"/>
      <polygon points="20.552 -.422 24.614 -.498 24.614 3.529 20.552 3.454"/>
      <polygon points="25.629 -.516 29.691 -.592 29.691 3.623 25.629 3.548"/>
      <polygon points="30.707 -.611 34.768 -.686 34.768 3.717 30.707 3.642"/>
      <polygon points="35.784 -.705 39.846 -.78 39.846 3.812 35.784 3.736"/>
      <polygon points="40.861 -.799 44.923 -.874 44.923 3.906 40.861 3.83"/>
      <polygon points="45.938 -.893 50 -.969 50 4 45.938 3.925"/>
    </g>
    <g fill="#FFF" transform="rotate(38 -9.506 18.84)">
      <polygon points=".243 .955 4.305 .879 4.305 4.152 .243 4.077"/>
      <polygon points="5.32 .861 9.382 .785 9.382 4.246 5.32 4.171"/>
      <polygon points="10.398 .766 14.459 .691 14.459 4.34 10.398 4.265"/>
      <polygon points="15.475 .672 19.537 .597 19.537 4.435 15.475 4.359"/>
      <polygon points="20.552 .578 24.614 .502 24.614 4.529 20.552 4.454"/>
      <polygon points="25.629 .484 29.691 .408 29.691 4.623 25.629 4.548"/>
      <polygon points="30.707 .389 34.768 .314 34.768 4.717 30.707 4.642"/>
      <polygon points="35.784 .295 39.846 .22 39.846 4.812 35.784 4.736"/>
      <polygon points="41.053 .087 50 .031 50 5 41.053 4.905"/>
    </g>
  </g>
</svg>
