<svg xmlns="http://www.w3.org/2000/svg" width="98" height="88" viewBox="0 0 98 88">
  <g fill="none" fill-rule="evenodd">
    <polygon fill="#EFEFEF" stroke="#979797" points="21.393 1.276 95.164 46.738 62.4 84.313 1.503 29.581"/>
    <polygon fill="#DDD" stroke="#DDD" stroke-linejoin="bevel" points="62.644 87.029 1.489 32.786 1.24 29.284 62.644 83.832"/>
    <polygon fill="#ACACAC" stroke="#ACACAC" stroke-linejoin="bevel" points="95.463 46.432 97.414 55.064 62.537 87.35 62.537 84.204"/>
    <polygon fill="#FFF" points="15.264 40.678 17.19 37.036 46.379 62.686 44.011 66.494"/>
    <g fill="#FFF" transform="rotate(40 -23.92 24.04)">
      <polygon points=".365 -.068 6.457 -.181 6.457 4.728 .365 4.615"/>
      <polygon points="7.981 -.209 14.073 -.322 14.073 4.869 7.981 4.756"/>
      <polygon points="15.596 -.351 21.689 -.464 21.689 5.011 15.596 4.898"/>
      <polygon points="23.212 -.492 29.305 -.605 29.305 5.152 23.212 5.039"/>
      <polygon points="30.828 -.633 36.921 -.746 36.921 5.293 30.828 5.18"/>
      <polygon points="38.444 -.775 44.537 -.888 44.537 5.435 38.444 5.322"/>
      <polygon points="46.06 -.916 52.152 -1.029 52.152 5.576 46.06 5.463"/>
      <polygon points="53.676 -1.057 59.768 -1.17 59.768 5.717 53.676 5.604"/>
      <polygon points="61.291 -1.199 67.384 -1.312 67.384 5.859 61.291 5.746"/>
      <polygon points="68.907 -1.34 75 -1.453 75 6 68.907 5.887"/>
    </g>
    <g fill="#FFF" transform="rotate(36 -7.644 31.451)">
      <polygon points=".365 -.068 6.457 -.181 6.457 4.728 .365 4.615"/>
      <polygon points="7.981 -.209 14.073 -.322 14.073 4.869 7.981 4.756"/>
      <polygon points="15.596 -.351 21.689 -.464 21.689 5.011 15.596 4.898"/>
      <polygon points="23.212 -.492 29.305 -.605 29.305 5.152 23.212 5.039"/>
      <polygon points="30.828 -.633 36.921 -.746 36.921 5.293 30.828 5.18"/>
      <polygon points="38.444 -.775 44.537 -.888 44.537 5.435 38.444 5.322"/>
      <polygon points="46.06 -.916 52.152 -1.029 52.152 5.576 46.06 5.463"/>
      <polygon points="53.676 -1.057 59.768 -1.17 59.768 5.717 53.676 5.604"/>
      <polygon points="61.291 -1.199 67.384 -1.312 67.384 5.859 61.291 5.746"/>
      <polygon points="68.907 -1.34 75 -1.453 75 6 68.907 5.887"/>
    </g>
    <g fill="#FFF" transform="rotate(34 1.63 36.98)">
      <polygon points=".365 -.068 6.457 -.181 6.457 4.728 .365 4.615"/>
      <polygon points="7.981 -.209 14.073 -.322 14.073 4.869 7.981 4.756"/>
      <polygon points="15.596 -.351 21.689 -.464 21.689 5.011 15.596 4.898"/>
      <polygon points="23.212 -.492 29.305 -.605 29.305 5.152 23.212 5.039"/>
      <polygon points="30.828 -.633 36.921 -.746 36.921 5.293 30.828 5.18"/>
      <polygon points="38.444 -.775 44.537 -.888 44.537 5.435 38.444 5.322"/>
      <polygon points="46.06 -.916 52.152 -1.029 52.152 5.576 46.06 5.463"/>
      <polygon points="53.676 -1.057 59.768 -1.17 59.768 5.717 53.676 5.604"/>
      <polygon points="61.291 -1.199 67.384 -1.312 67.384 5.859 61.291 5.746"/>
      <polygon points="68.907 -1.34 75 -1.453 75 6 68.907 5.887"/>
    </g>
    <g fill="#FFF" transform="rotate(38 -14.26 28.259)">
      <polygon points=".365 1.432 6.457 1.319 6.457 6.228 .365 6.115"/>
      <polygon points="7.981 1.291 14.073 1.178 14.073 6.369 7.981 6.256"/>
      <polygon points="15.596 1.149 21.689 1.036 21.689 6.511 15.596 6.398"/>
      <polygon points="23.212 1.008 29.305 .895 29.305 6.652 23.212 6.539"/>
      <polygon points="30.828 .867 36.921 .754 36.921 6.793 30.828 6.68"/>
      <polygon points="38.444 .725 44.537 .612 44.537 6.935 38.444 6.822"/>
      <polygon points="46.06 .584 52.152 .471 52.152 7.076 46.06 6.963"/>
      <polygon points="53.676 .443 59.768 .33 59.768 7.217 53.676 7.104"/>
      <polygon points="61.58 .131 75 .047 75 7.5 61.58 7.358"/>
    </g>
  </g>
</svg>
