<svg xmlns="http://www.w3.org/2000/svg" width="469" height="718" viewBox="0 0 469 718">
  <g fill="none" fill-rule="evenodd" stroke-width="2.5" transform="translate(1 2)">
    <path stroke="#F70993" stroke-linecap="round" stroke-linejoin="round" d="M239.666163,355.71211 C239.666163,396.167559 240.609663,350.099613 235.994341,351.695141 C227.567468,354.608332 233.065764,377.282255 224.283271,375.743854 C215.48385,374.202489 228.916308,353.720582 221.261915,349.114511 C214.146041,344.832496 217.826876,375.630511 210.145558,378.234216 C208.063466,378.939974 207.133196,374.746089 206.747198,372.581786 C205.96282,368.183755 209.703961,362.528451 206.747198,359.1795 C204.790266,356.963 202.035465,367.291781 200.101809,365.054947 C197.193796,361.690987 204.91374,350.190203 200.295622,351.716381 C169.700182,361.827443 213.918329,344.11233 197.276922,344.393975 C194.52091,344.440619 187.386563,352.782497 185.297846,350.093662 C183.20913,347.404826 193.34724,339.373823 189.930621,334.936974 C187.665812,331.995875 183.501514,346.754427 179.000178,342.894545 C174.498842,339.034662 182.787482,332.112539 181.257412,325.270231 C179.727341,318.427922 167.288479,323.716364 163.176494,325.270231 C127.550901,338.732689 100.309356,352.751092 90.8949521,392.20201 C86.8849987,409.005658 84.0868706,426.089615 79.8608992,442.840241 C77.150773,453.58246 72.9352556,463.901359 70.1038866,474.61226 C68.8711655,479.275571 65.9260555,494.510311 70.1038866,496.921078 C77.4819366,501.178493 84.7278089,487.411567 93.2286702,487.956137 C105.726338,488.756744 126.358219,502.741699 124.02366,517.946671 C122.708494,526.512342 117.979149,534.249129 113.879022,541.883875 C86.0920656,593.625297 109.831051,558.155533 133.727574,519.39363 C138.087466,512.321566 149.600327,479.001728 133.727574,477.350337 C117.85482,475.698946 134.407318,479.030822 153.326558,525.061989 C155.312548,529.893971 160.5145,532.691826 163.53226,536.956252 C166.925376,541.751097 170.228176,546.71149 172.484817,552.134712 C176.99226,562.967124 182.210777,593.058198 189.61999,602.23133 C189.915884,602.597669 190.69605,603.378444 190.846586,602.932242 C211.385937,542.051675 223.762894,510.335418 279.527407,473.501499 C285.924783,469.275865 291.648109,482.835463 288.098116,493.75459 C280.767207,516.303117 235.343894,533.485242 255.258897,554.97553 C257.635377,557.539991 262.092575,559.419273 267.830079,554.97553 C274.606094,549.727451 290.692021,513.683818 295.999305,530.395823 C297.35525,534.665533 302.489185,539.848435 305.867826,537.702299 C309.246467,535.556162 311.894561,542.527792 312.215858,545.993768 C312.762404,551.889624 310.334636,557.768046 308.241368,563.306824 C306.07246,569.045746 301.826199,573.244311 295.784252,574.407251 C270.561119,579.262142 244.972645,582.114537 219.796372,587.206858 C209.328256,589.32421 203.43915,599.515006 216.041782,602.23133 C240.151296,607.427806 278.956936,604.294858 349.121155,596.038556 C419.285374,587.782255 412.957956,478.900673 391.965829,437.171882 C391.081792,435.414566 393.826984,422.151544 391.965829,422.633473 C385.318187,424.354819 381.306127,437.171882 374.371347,441.727809 C357.964026,452.506891 333.733555,444.934934 316.747891,434.23814 C313.062723,431.917391 310.699539,427.922949 308.204199,424.353689"/>
    <path stroke="#0651FF" d="M307,309.989158 L317.31893,339.35097 L310.185698,304 L318.784391,322.616808 C315.456352,314.677301 314.967865,308.471698 317.31893,304"/>
    <path stroke="#0651FF" stroke-linecap="round" stroke-linejoin="round" d="M91.9383551,357.866098 C105.939779,399.643812 113.04202,444.410299 133.942626,483.19924 C143.913562,501.704063 127.759601,441.596025 125.778595,420.6694 C122.89006,390.155961 118.029327,359.567322 119.340294,328.945516 C119.489326,325.46442 127.391325,328.135721 129.625646,330.809305 C135.62788,337.991568 138.197005,347.464589 141.973909,356.028859 C157.064793,390.248004 151.564731,409.631512 161.748121,446.050907 C164.108155,454.49122 161.09426,428.498374 161.748121,419.758745 C162.552486,409.00746 164.130462,398.308115 166.112891,387.710609 C167.423435,380.704807 167.775002,373.055454 171.608677,367.046982 C172.815578,365.155422 175.104751,370.051699 176.095576,372.064875 C178.410726,376.768841 180.638906,381.690799 181.371,386.882259 C183.761955,403.837109 179.317909,422.087809 185.406553,438.091309 C188.081822,445.123032 190.331273,409.612445 192.731614,416.7427 L197.529144,410.723884 C200.398048,419.246015 192.90737,454.545736 192.466117,458.640772 C192.372873,459.506119 193.986051,455.901722 194.247602,456.731849 C195.381777,460.331579 193.798323,464.582955 195.413133,467.99423 C195.961979,469.153662 197.908804,467.399517 199.15664,467.10216"/>
    <path stroke="#402D4F" stroke-linecap="round" d="M59.0753659,517.228004 C81.6766661,526.351258 105.649853,557.56896 89.2560984,583.628748 C88.743152,584.444136 124.948219,588.209127 135.945204,588.209127 C135.945204,619.523588 92.8466037,612.333349 106.491338,601.611206 C120.136073,590.889063 140.41942,681.351038 125.578273,692.818768"/>
    <path stroke="#3F2C4E" stroke-linecap="round" d="M0.807878807,641.338211 C1.95735662,656.389775 17.8774052,680.638853 21.6072554,675.28228 C26.5090619,668.242618 20.7591788,654.849772 16.477999,646.597743 C13.0501945,639.990606 23.3379231,622.722398 25.5522063,633.961438 C27.7664896,645.200479 30.2595507,716.390154 47.3527534,701.850278 C60.7655487,688.631899 38.7963896,662.848007 50.4304332,628.200688 C56.2259779,610.94099 67.9461499,630.1956 65.0740443,646.597743 C62.4986227,661.30557 57.4165647,707.997858 63.0229399,712.349929 C73.4040357,720.408481 79.9329075,706.54741 81.2637882,696.118454 C83.4343388,679.109734 80.9580664,607.09992 85.9272858,604.851646 C103.784466,596.77234 76.8533945,673.653693 100.530229,663.889281 C111.56795,659.337285 104.883383,607.213255 85.9272858,616.25058 C69.1741874,624.237625 8.71561185,609.298987 28.1680131,599.938659 C42.7664592,593.704516 29.6913125,620.540582 23.193679,601.827619 C16.7053424,583.141432 59.4158308,560.524279 55.4131969,555.097208 C54.949119,554.467976 53.6525915,554.345262 52.7799379,554.550525 C50.8883794,554.995451 37.1383811,570.57768 36.1575188,568.900223 C32.9313552,563.382883 31.7788011,551.019642 34.0945353,545.251209"/>
    <path stroke="#412C4F" stroke-linecap="round" stroke-linejoin="round" d="M221,27.1797271 C236.222974,12.8230348 260.070963,27.7288175 260.070963,5.0359827 C260.070963,0.153939899 257.504667,-2.64533822 254.088795,3.60186865 C250.062155,10.9660939 245.981471,10.1349657 247.774157,28.5302434 C249.566842,46.925521 254.088795,60.3707474 247.774157,57.6053871 C241.459519,54.8400268 270.854426,2.57694622 272.196372,3.60186865 C290.263958,17.4011393 282.892336,30.2869098 282.108058,53.087401 C281.908202,58.8975981 321.571764,96.8129292 361.018729,118.392289 C374.066772,125.530188 425.421833,152.949488 422.678622,177.848273 C419.935412,202.747058 427.851808,182.351797 428.009608,179.96691 C439.584151,5.0359827 449.875159,161.938792 453.270452,161.155984 C457.41684,160.200005 462.278036,157.625507 465.959344,159.75961 C468.929534,161.481469 461.506682,171.099446 460.428876,172.044951 C448.816373,182.232017 441.786595,187.590051 429.227136,194.485533 C417.932091,200.686817 406.91755,207.42004 396.200249,214.573602 C385.860106,221.475421 370.251829,224.890189 366.112857,236.612927 C361.397898,249.967021 370.458983,264.627575 373.656487,278.423901 C374.676427,282.824651 376.587252,287.011958 378.716911,290.995855 C380.304221,293.965193 382.187143,296.900894 384.719715,299.119588 C389.460745,303.273033 394.754886,306.826562 400.270141,309.87786 C410.962833,315.79356 428.740638,289.609393 432.939336,281.47804 C435.675927,276.178258 442.105797,270.269069 439.584151,264.863709 C437.731667,260.892755 431.409224,268.246928 427.078692,268.915258 C424.803359,269.266409 422.049706,269.288845 420.25503,267.846768 C414.297796,263.059945 409.610654,256.856421 404.74129,250.966461 C403.273111,249.190558 402.466737,246.958477 401.32946,244.954486"/>
    <path stroke="#422B4F" stroke-linecap="round" stroke-linejoin="round" d="M137.993142,107.816698 C134.591956,178.369108 135.112924,224.331288 139.556047,245.703238 C144.645982,270.186431 158.797866,287.256906 168.410197,295.183893 C201.708056,322.643591 226.063264,292.715748 233.413905,293.97822 C240.764546,295.240691 220.447483,321.683576 213.090136,324.046079 C205.732789,326.408582 196.04547,305.754937 188.000178,316.522005 C179.954886,327.289073 217.196696,375.459426 222.807242,355.549188 C226.439286,342.660092 217.877646,338.52098 254.389833,344.914438 C290.902019,351.307895 243.284863,235.601203 278.777956,248.399138 C290.359871,252.57529 298.864652,215.835995 298.717627,211.363354 C300.469836,198.354939 297.683917,190.917832 290.359871,189.052031 C275.187241,185.186805 277.039384,194.564906 273.391993,208.454532 C272.765355,210.840834 271.046858,216.622616 273.391993,215.856157 C277.89236,214.385305 278.777956,200.168539 285.025114,200.168539 C291.272272,200.168539 277.905273,232.059525 273.391993,229.429668 C269.362407,227.081657 274.363366,213.548672 266.812412,217.667651 C264.865549,218.729647 264.858435,230.189137 250.6372,230.189137 C236.921963,230.189137 236.921963,224.6912 250.6372,213.695325 C260.650955,205.949809 278.136029,185.398534 282.09705,172.340185 C289.352735,148.420269 278.136029,133.842951 272.460971,104.766603 C272.189467,103.375544 264.053336,106.312344 266.812412,112.750117 C269.571489,119.18789 289.855392,108.923058 290.359871,110.900275 C296.794421,136.119397 187.68355,153.045408 161.494008,114.731865 C157.217383,108.475449 202.892177,90.2010075 222.807242,88.5721336 C232.166579,87.0259769 279.629296,86.4166119 278.777956,99.835695 C278.276276,107.743333 230.766832,81.8386825 219.758768,79.1841613 C203.358624,75.2293757 173.970168,73.8550901 161.494008,82.4504782 C136.032403,99.9921234 155.339987,112.035451 151.762645,140.22443 C149.575256,157.460755 137.763982,162.260533 143.342751,195.31474 C143.619093,196.952064 106.209749,181.210823 140.884276,211.363354 C155.209741,223.621905 180.835641,235.857535 168.410197,254.963792 C160.347308,267.361871 207.137816,256.798945 208.620751,243.885649 C209.028737,240.33293 185.972056,240.479616 186.111114,236.906252 C186.172896,235.318626 192.697017,204.312567 194.427356,200.168539 C206.712192,170.747296 219.758768,159.775076 201.699326,159.775076 C200.447039,159.775076 179.211644,142.455616 137.993142,107.816698 Z"/>
  </g>
</svg>
