<svg xmlns="http://www.w3.org/2000/svg" width="59" height="32" viewBox="0 0 59 32">
  <g fill="none" fill-rule="evenodd" stroke="#FFF">
    <rect width="58" height="31" x=".5" y=".5"/>
    <path stroke-linecap="round" stroke-linejoin="round" d="M13.934088,31.4027343 C3.18191761,20.791764 0.397476704,15.1178633 5.58076533,14.3810322 C7.22606409,14.1008342 9.25650302,16.3713749 11.6720821,21.1926545 C7.84046502,9.53073036 6.78557873,3.69976828 8.50742322,3.69976828 C10.2292677,3.69976828 12.446749,8.93352683 15.1598671,19.4010439 C12.8346771,7.49981091 12.4260841,1.54919441 13.934088,1.54919441 C15.442092,1.54919441 17.4112768,8.09701445 19.8416424,21.1926545 C18.6771511,8.09701445 18.6771511,1.54919441 19.8416424,1.54919441 C21.0061337,1.54919441 21.937724,8.09701445 22.6364132,21.1926545 C23.2741262,12.252019 24.0446798,7.95251943 24.9480739,8.29415573 C26.3031651,8.80661018 27.9745377,22.2611773 22.6364132,31.4027343 L13.934088,31.4027343 Z"/>
  </g>
</svg>
