<svg xmlns="http://www.w3.org/2000/svg" width="214" height="232" viewBox="0 0 214 232">
  <defs>
    <linearGradient id="body2-a" x1="60.01%" x2="75.848%" y1="4.128%" y2="60.644%">
      <stop offset="0%" stop-color="#860000"/>
      <stop offset="100%" stop-color="#F00"/>
    </linearGradient>
  </defs>
  <g fill="none" fill-rule="evenodd">
    <path fill="#FFC4C4" d="M177.440152,135.196691 C154.756874,134.47403 138.64354,132.245367 129.100153,128.510701 L139.9983,101.154408 C164.746948,109.214005 181.004704,115.267721 188.771567,119.315554 C200.165608,125.719355 206.822462,129.151675 208.742131,129.612514 L211.217763,129.612514 L213.45759,136.845274 L209.990811,140.345489 L205.159687,145.3969 L177.440152,135.196691 Z"/>
    <path fill="#FFE566" d="M104.621374,91.2540183 C118.466339,79.9073205 130.480514,82.7113689 140.6639,99.6661635 L128.618931,129.55235 L122.642637,127.855078 C100.610627,194.86822 88.482609,228.760966 86.2585827,229.533317 C62.8282367,232.504898 40.8106538,232.504898 20.205834,229.533317 C17.1336829,228.870003 10.6973653,227.36139 0.896881189,225.007477 C0.847023203,223.606357 0.847023203,222.697479 0.896881189,222.280843 C1.51645135,217.103435 2.92768002,211.836373 5.13056721,206.479658 C8.21185496,198.986955 8.86970329,176.691737 7.1041122,139.594006 C5.7447483,92.8555169 15.2844066,75.0249926 35.723087,86.1024328 C66.3811076,102.718593 73.7648491,135.49627 104.621374,91.2540183 Z"/>
    <g transform="translate(36.398 .77)">
      <path fill="#FFC4C4" d="M0,21.34638 C2.71577231,35.7133281 5.84875332,44.6409132 9.39894302,48.1291353 C14.7242276,53.3614686 33.6807028,60.1607601 43.7588558,46.3191192 C50.4776246,37.0913586 48.7254904,21.6516522 38.5024534,2.84217094e-14 L0,21.34638 Z" transform="matrix(-1 0 0 1 60.789 73.564)"/>
      <path fill="#FFC4C4" d="M6.56078949,50.6224814 L1.84808788,31.3841257 L6.37636334,11.3899238 L8.62664988,12.9022656 L10.7267042,9.1610448 L23.1554885,0.03484414 C47.4817394,0.545911377 62.0407665,2.81824843 66.8325699,6.85185529 C74.0202749,12.9022656 83.6084986,3.89288028 76.99402,12.9022656 C75.6127127,14.4462995 74.2072673,15.8859894 72.7776838,17.2213352 L79.3823353,35.3007544 L74.7670082,51.4260484 L75.1862763,51.0451949 C76.4141168,49.9298528 78.2583364,49.8356811 79.5934001,50.8201532 L79.9423871,51.0774953 C81.5029375,52.2282406 82.2574921,54.1774652 81.8785011,56.0790167 L80.1205827,64.8992066 C77.9828954,73.9507411 75.2440278,78.4765084 71.9039797,78.4765084 C71.4517358,78.4765084 71.0678815,78.3205937 70.7524169,78.0087644 C69.8924221,84.2328931 68.7097974,90.7626426 67.5490506,93.8354188 C65.3434395,99.6742023 46.4345723,110.689783 39.9246118,110.689783 C33.4146514,110.689783 19.1742983,100.968788 14.6630587,93.8354188 C12.7256768,90.7719458 11.2962198,85.6500928 10.3746875,78.4698597 C7.13456934,78.2739913 4.46931901,73.7504403 2.3789365,64.8992066 L0.621018078,56.0790167 C0.24202709,54.1774652 0.99658166,52.2282406 2.55713204,51.0774953 L2.60093525,51.0451949 C3.77234583,50.1814001 5.28974395,50.0505779 6.56078949,50.6224814 Z"/>
      <g stroke="#7E0000" stroke-width="2" transform="translate(14.481 36.06)">
        <path d="M1.44813278,12.9151238 C1.29811805,4.47643412 3.83394944,0.447880905 9.05562696,0.829464156"/>
        <path d="M43.0619747,11.4726995 C43.7134778,3.59330872 46.6500682,-0.155595063 51.8717457,0.225988187" transform="matrix(-1 0 0 1 94.934 0)"/>
      </g>
      <path fill="#860000" d="M0.550257149,0 C4.82428667,10.5370614 11.8402877,15.8055921 21.5982602,15.8055921 C29.6318798,15.8055921 35.8241779,10.5370614 40.1751545,0 C26.9845552,6.31153365 13.7702796,5.52685748 0.550257149,0 Z" transform="translate(20.274 83.66)"/>
      <path fill="#7E0000" d="M0,1.44242424 L3.69683642,5.04807214 C4.88294664,6.20492501 6.78229349,6.18120724 7.93914636,4.99509702 C7.96027903,4.97342989 7.9810826,4.9514442 8.00154992,4.9291475 L12.1283123,0.433532284 L0,1.44242424 Z" transform="translate(36.203 77.89)"/>
    </g>
    <path fill="#7E0000" d="M59.933242 45.6090442L63.2104358 48.4606553 63.2104358 42.6786139C66.4600508 43.5480542 70.3830167 51.6326746 67.968188 67.1026565 66.9682094 70.3530682 65.691496 70.0666324 64.4654713 68.5366044 60.6054444 60.9427957 59.00825 53.8116648 59.673888 47.1432119 59.7301547 46.5795248 59.8180736 46.0680999 59.933242 45.6090442zM94.3857602 42.8113006L94.3857602 49.2617941 96.7739923 47.6246939C97.2321382 51.8927431 95.9963091 58.756517 91.2915846 67.6526526 89.2878557 70.400416 88.1739538 69.7139284 87.512853 67.8681039 86.3354282 59.4313149 87.1469203 52.1687025 89.9473294 46.0802669 91.2678733 43.2092413 92.9902639 42.1966871 94.3857602 42.8113006z"/>
    <path fill="#FFC4C4" d="M185.624944,132.738138 C171.970643,132.738138 159.916516,137.509156 149.462561,147.051192 C146.456526,149.229209 135.863254,154.647351 117.682745,163.305619 C114.057934,163.305619 114.057934,162.523606 107.971095,163.305619 C106.933101,159.550011 103.045971,155.008234 96.3097042,149.680286 C85.2420603,144.640131 84.6121422,144.631424 72.5724211,152.241671 C70.6502349,156.513365 73.4145376,157.766474 80.8653294,156.000999 C85.9816321,156.000999 93.963602,156.87523 85.9816321,167.47011 L65.8653499,171.27166 C61.9014613,170.597687 70.2549307,168.947626 73.4149114,168.50638 C75.3242372,168.23977 70.8503252,165.770711 69.3309987,165.770711 C62.3131719,165.770711 57.6108611,168.004652 55.2240664,172.472534 L58.8042584,179.630505 L65.8653499,185.096143 L73.4149114,189.732019 C73.1218654,192.721347 76.4159186,195.672246 83.2970712,198.584715 C90.1782237,201.497185 98.9653856,202.037553 109.658557,200.205822 C115.033654,197.201417 116.584386,187.901344 120.104734,185.096143 C121.292208,184.079278 203.347198,159.71529 208.884246,140.255216"/>
    <g transform="translate(46.535 129.145)">
      <path fill="#F1C277" stroke="#BC7719" d="M26.7904564,44.7151515 C40.7866353,44.7151515 52.5890153,35.3449595 52.1327801,23.8 C51.3392634,3.72018874 38.7958022,18.0554439 30.9325954,14.504747 C27.3260073,12.8761619 31.1914464,2.88484848 26.7904564,2.88484848 C12.7942776,2.88484848 1.44813278,12.2488808 1.44813278,23.8 C1.44813278,35.3511192 12.7942776,44.7151515 26.7904564,44.7151515 Z"/>
      <path fill="#FF9A9A" d="M24.6182573,37.5030303 C37.4147637,37.5030303 51.159614,27.8383512 51.159614,17.0838609 C51.159614,12.7719625 48.9500968,9.19786563 45.4780675,6.46309077 C44.1691301,5.43209459 41.4127519,16.377462 32.942343,12.202698 C24.4719341,8.02793395 35.3956474,1.59842352 32.942343,1.00742563 C29.86135,0.265218354 27.8091264,0.164557532 24.6182573,0.164557532 C11.8217509,0.164557532 0.709622842,10.1310439 0.709622842,20.8855343 C0.709622842,31.6400246 11.8217509,37.5030303 24.6182573,37.5030303 Z"/>
      <ellipse cx="25.699" cy="19.108" fill="#BC7719" rx="8.689" ry="5.77" transform="rotate(13 25.699 19.108)"/>
      <path fill="#FFE566" d="M18.3856514,19.8721896 C20.2384051,18.917948 22.8424438,18.6312285 25.5483666,19.25594 C28.5851591,19.9570388 31.0033868,21.6336555 32.1291513,23.5735186 C30.2225259,24.6149559 27.2719368,24.7840055 24.2553398,24.0875692 C21.288767,23.4026819 19.2769629,21.7684201 18.3856514,19.8721896 Z"/>
      <g stroke-width="2" transform="translate(1.448 1.442)">
        <path stroke="#B31818" d="M7.2406639 17.3090909C8.96810326 18.1545043 9.99500324 19.5651823 10.3213638 21.5411249M43.7047342 10.0969697C42.9086156 12.8479675 43.9355156 14.2586455 46.7854342 14.3290037M26.3271409 1.44242424C26.4023956 3.78389265 26.4023956 5.66565284 26.3271409 7.0877048"/>
        <path stroke="#00BDE1" d="M10.1369295 25.9636364L15.3352054 29.6270943M20.2738589 1.44242424C20.8099551 4.8390297 19.1073095 6.62507421 16.3834001 7.67641688"/>
        <path stroke="#AAE8F4" d="M25.0851069 30.4382342C20.2306522 29.9903053 18.199847 28.4987727 18.9926915 25.9636364M7.26840296 13.6544457C6.8117849 11.4695732 5.83711669 9.80293978 4.34439834 8.65454545"/>
        <path stroke="#AAE8F4" d="M43.4717225,25.1938396 C43.0151044,23.0089671 42.0404362,21.3423337 40.5477178,20.1939394" transform="matrix(-1 0 0 1 84.02 0)"/>
        <path stroke="#C133CC" d="M10.1369295,12.9818182 L16.2599307,14.4499499"/>
        <path stroke="#1C6D2A" d="M37.5366152 8.65454545L36.2033195 13.6031027M20.1590219 33.1757576L25.6435254 36.372582M.189045975 10.1999962C.0767867968 11.5327447.78430775 12.876697 2.31160884 14.231853"/>
        <path stroke="#FFE566" d="M4.05336702 23.0787879L1.13686838e-13 24.1559415M14.5714697 4.60932093L11.5850622-5.68434189e-14"/>
        <path stroke="#F8E71C" d="M33.7437997,24.9763412 C35.9074172,22.9389914 36.1836574,20.8627961 34.7551867,18.7515152"/>
        <path stroke="#C133CC" d="M34.5203591,35.4047322 C32.2885272,33.2479316 31.7305692,31.1509417 32.8464852,29.1137626"/>
      </g>
    </g>
    <path fill="#FFC4C4" d="M118.551479,169.978265 C115.958836,168.556977 113.296306,161.913378 108.085955,163.568015 C107.05686,159.813503 103.482505,155.270828 96.8039866,149.944434 C85.8312214,144.905749 83.5666397,144.917967 71.6301306,152.525995 C69.7244226,156.796443 72.465028,158.049187 79.851947,156.284227 C84.9243895,156.284227 92.837933,157.158203 84.9243895,167.749993 L64.9805566,171.550434 C61.0506489,170.876658 56.8353646,169.035858 54.4304968,172.750958 C52.8272517,175.22769 54.1691709,177.039998 58.4562545,178.187879"/>
    <g transform="translate(69.705 90.2)">
      <path fill="url(#body2-a)" d="M0,4.06865069 C4.5518354,8.22498638 8.45726669,11.7531591 11.7162939,14.6531689 C16.6048347,19.0031835 25.7600014,18.1730125 25.7600014,11.9002451 C25.7600014,5.62747774 20.0159826,2.82364481 17.3059899,0.824379229 L0,4.06865069 Z"/>
      <path stroke="#860000" d="M9.78134683,2.14979106 C13.4670572,4.08197035 15.9509546,6.16902849 17.2330389,8.4109655"/>
    </g>
  </g>
</svg>
