<svg xmlns="http://www.w3.org/2000/svg" width="89" height="90" viewBox="0 0 89 90">
  <g fill="none" fill-rule="evenodd">
    <path fill="#FFC4C4" d="M54.5156353,15 C65.911148,21.5902358 69.6267272,30.1664547 79,40.6953215 L70.2997998,41 C56.7628206,33.0545204 61.2284916,23.0920786 49,15 L54.5156353,15 Z"/>
    <path fill="#999" d="M13,15.6839311 L38.452952,53.712087 L40.7567562,63.0664186 L46.9803449,64.4390315 C48.4394174,64.76083 49.9128869,63.959892 50.4363385,62.5604474 L53.0169952,55.6610763 C53.4554263,54.4889331 54.5754107,53.712087 55.8268664,53.712087 C56.5377867,53.712087 57.2487069,53.712087 57.9596271,53.712087 L66.758394,47.2644025 L67.1891229,45.7752531 C67.6309404,44.2477677 69.1878236,43.3303395 70.7381092,43.6839338 L77.5843538,45.2454476 C78.6612668,45.4910735 79.7333965,44.817182 79.9790223,43.740269 C80.0585597,43.3915481 80.0431241,43.027878 79.9343237,42.6871509 L79.3488087,40.8535102 L40.7567562,14.0457387 C31.0236193,13.8162157 21.843574,14.4641072 13,15.6839311 Z"/>
    <path fill="#FFC4C4" d="M7,18.4708742 C17.5540667,38.4669082 28.5540667,51.9766168 40,59 L38.944288,50.8027626 C21.9767411,29.5166681 12.9940297,18.1671596 11.9961538,16.7542371 C10.9982779,15.3413147 9.33289329,15.913527 7,18.4708742 Z"/>
    <path fill="#FFC4C4" d="M12.2145599 14.2087374C23.3598573 11.6085814-2.73968647 27.6898895.23857843 12.1068618 1.19358141 7.11004708 4.01121025 15.8251593 4.61611539 15.3347778 3.83699928 10.9918765 3.91036797 8.55270384 4.83622147 8.0172598 6.22500171 7.21409375 6.95709366 9.60189126 8.32409429 13.012413 9.69109492 16.4229346 7.90219681 7.00121478 10.8528392 7.00121478 10.8528392 7.00121478 12.6381074 6.74284193 11.7162688 13.7622758L12.2145599 14.2087374zM40.7685741 11.9641846C39.6883748 12.4301464 39.1300875 13.8807072 43.4291529 15.228227 46.2951964 16.1265735 51.0946899 16.2406611 57.8276334 15.5704899 65.3994782 14.528128 68.7442216 13.1236892 67.8618636 11.3571735 66.5383265 8.70739995 57.4370599 14.3858093 56.7804275 13.4739423 56.123795 12.5620753 62.6535332 6.67240306 59.9366332 4.74258695 57.2197332 2.81277084 54.1449969 13.4756734 53.4048459 13.0759774 52.6646949 12.6762814 57.126969 1.82935435 53.4048459 1.21529426 49.6827228.601234174 51.3013858 12.6219361 50.6526759 12.6219361 50.0039659 12.6219361 49.6643765-1.07663152 45.6374997.0679271207 42.9529152.830966213 43.7692963 5.29963794 48.086643 13.4739423 43.9280633 12.156796 41.488707 11.6535434 40.7685741 11.9641846z"/>
    <g transform="rotate(108 29.563 61.527)">
      <path fill="#FFC4C4" d="M11.9895667,22.5027083 L9.43643026,20.7630362 C17.5147386,4.93380976 25.3768428,-1.70686129 33.0227428,0.841023025 C42.9345536,4.20474387 44.8202759,10.0223936 38.6799097,18.2939722 C40.5317847,19.8595069 39.525703,21.972045 35.6616647,24.6315865 C29.8656072,28.6208987 22.0352105,27.2535847 18.1550266,29.1887163 C15.5682374,30.478804 14.4738415,33.8592539 14.871839,39.3300662 C4.9094518,42.29968 0.276457393,40.3880859 0.972855763,33.5952839 C1.84277015,29.2227581 4.19087762,25.8685689 8.01717816,23.5327165 C9.39459527,22.8460444 10.7187248,22.5027083 11.9895667,22.5027083 Z"/>
      <polyline stroke="#7E0000" points="19 11.059 24.139 11.059 23.552 7"/>
      <path stroke="#7E0000" d="M21.5882215,8.23101506 C22.0640399,10.1488598 22.863723,10.636165 23.7789824,10.6129592"/>
      <polyline stroke="#7E0000" points="28.179 18.652 27.205 13.638 33.684 14.23"/>
      <path stroke="#7E0000" d="M27.1988517,13.7534696 C28.0235399,15.4039711 29.6247177,16.383007 32.0023852,16.6905772"/>
      <path fill="#7E0000" d="M20.6678626,15.8765898 C23.4148693,16.7914827 24.0658766,17.3031327 22.6208844,17.4115396 C21.1758922,17.5199466 20.5248849,17.0082966 20.6678626,15.8765898 Z"/>
      <path stroke="#7E0000" d="M21.1221145,16.0719478 C21.7524403,13.9214502 22.6325201,13.0302978 23.762354,13.3984907"/>
      <path fill="#7E0000" d="M12.153665,19.6744406 C13.2361218,17.4256521 21.5027983,14.5205494 21.5027983,23.2318036 C21.5027983,27.1275818 11.0712082,21.923229 12.153665,19.6744406 Z"/>
      <path fill="#FFF" d="M13.918002,18.1327956 L21.4620496,22.1183872 C21.5519858,20.1238974 20.7732162,18.6919402 19.1257406,17.8225157 C17.478265,16.9530911 15.7423522,17.0565178 13.918002,18.1327956 Z"/>
    </g>
  </g>
</svg>
