<svg xmlns="http://www.w3.org/2000/svg" width="96" height="69" viewBox="0 0 96 69">
  <g fill="none" fill-rule="evenodd">
    <path fill="#FFC4C4" d="M34.7913278,45.5465415 C34.7391792,44.5226906 31.3249922,36.4506961 34.060561,34 L37.5461182,44.6168947 C39.2372691,44.9909442 41.5270297,41.0233529 43.2530382,40.9069766 C44.3403882,40.8336619 47.9744925,40.1335086 46.7516757,42.9542535 C45.5288588,45.7749985 48.6619007,44.3545789 43.8473391,56.2492692 C42.1157808,60.5271977 46.7622977,68.9615509 46.5078255,68.966805 C43.8532448,69.0216145 41.2031358,69.0085505 38.5574985,68.9276128 C36.3593349,59.4779423 35.1039447,51.6842518 34.7913278,45.5465415 Z"/>
    <polygon fill="#BC8C14" points="28 9.447 41.979 63 46 62.013 30.809 8"/>
    <path fill="#B44E4E" d="M4.32213768,21.2624944 C20.1959626,17.0633094 56.0510911,0 59.7941116,0 C63.5371322,0 72.131289,22.5918659 70.8758865,23.6989691 C64.329674,29.471885 33.0007725,37.8853846 24.8552679,39.7198319 C21.9140594,40.3822208 14.8926822,47.4663269 12.5855121,45.7255727 C6.14115624,40.8633221 4.32686816,32.6140168 0,26.1794666 L4.32213768,21.2624944 Z"/>
    <g transform="translate(53 30)">
      <path fill="#BC8C14" d="M4.08981042,38.3638044 L18.6387143,3.98776213 L20.9857249,3.98776213 L20.0921545,6.75943481 L26.743953,0 L28,2.04624979 L18.6387143,11.4550776 L6.07306749,38.1507037 C5.39553312,38.2370744 4.79909082,38.2952231 4.08981042,38.3638044 Z"/>
      <path fill="#B44E4E" d="M0.0316923023,25.4135219 C0.0632399837,24.0411198 -0.875630363,4.08204498 5.51978804,5.03290983 C10.9630013,5.84220171 34.068221,11.7144333 41.8278063,16.9135369 C42.8126883,17.5734308 43.1176643,19.0915736 42.9612256,20.2564459 C42.6743534,22.3925518 42.3632409,25.0452358 40.5706381,26.2746535 C36.6524359,28.9618674 33.1011779,26.3806251 28.2962807,28.0788761 C22.4140733,30.1578935 31.1273576,34.037632 3.54926573,26.8144952 L0.0316923023,25.4135219 Z"/>
    </g>
  </g>
</svg>
