<svg xmlns="http://www.w3.org/2000/svg" xmlns:xlink="http://www.w3.org/1999/xlink" width="887" height="851" style="background:#fff4f4" viewBox="0 0 887 851">
  <defs>
    <path id="illu1-a" d="M0,44.7863292 C5.62608418,74.9292791 12.1164718,93.6600318 19.4711628,100.978587 C30.5031992,111.95642 69.7740633,126.221851 90.6523002,97.1810357 C104.571125,77.820492 100.941345,45.4268134 79.7629623,0 L0,44.7863292 Z"/>
    <path id="illu1-b" d="M11.1490652,0.282195753 C31.587165,-1.89693716 39.2307229,8.54447848 34.079739,31.6064427 C26.1910956,66.9254449 6.33344544e-16,41.9824962 0,27.571064 C0,18.3579744 3.01775981,9.66225391 9.05327944,1.48390259 L9.05327687,1.4839007 C9.5525864,0.80731789 10.3129273,0.371345705 11.1490652,0.282195753 Z"/>
    <path id="illu1-c" d="M12.1490652,0.282195753 C32.587165,-1.89693716 40.2307229,8.54447848 35.079739,31.6064427 C27.1910956,66.9254449 1,41.9824962 1,27.571064 C1,18.3579744 4.01775981,9.66225391 10.0532794,1.48390259 L10.0532769,1.4839007 C10.5525864,0.80731789 11.3129273,0.371345705 12.1490652,0.282195753 Z"/>
  </defs>
  <g fill="none" fill-rule="evenodd">
    <path fill="#B79797" d="M183.139517,810.685399 C179.516964,810.685399 176.732939,799.136272 172.171294,778.197032 C170.790195,771.857396 173.912236,751.877038 172.171294,744.132494 C170.013682,734.534406 160.022138,744.292548 158.777453,744.132494 C149.245939,742.906843 156.750081,811.020386 149.623631,808.100961 C142.588475,805.218935 135.799783,763.081859 131.140323,744.132494 C127.373632,728.813898 158.777453,704.493192 158.777453,700.76494 C158.777453,685.024825 153.429918,704 188.5,704 C223.570082,704 256.533869,710.627478 249.942684,725.329139 C246.727777,732.5 226.958659,725.080679 218.566059,732.5 C216.233439,734.562109 227.17759,747.452361 225.746659,751.147056 C220.158335,765.576229 228.543789,800.824365 218.566059,803.909068 C214.81188,805.069706 214.028793,767.09817 207.05159,751.147056 C203.730983,743.555561 192.609488,749.94305 191.025183,751.147056 C182.853383,757.357283 191.998724,810.685399 183.139517,810.685399 Z"/>
    <path fill="#884F4F" d="M380.405573,723 C430.779894,723 542.634719,717.624016 587.656364,711.034518 C758.091147,686.08919 877,636.248339 877,556.208341 C877,475.226578 761.232467,423.112776 587.656364,398.904633 C544.356714,392.865759 488.630535,373 440.5,373 C354.775447,373 289.407236,413.062512 221.961105,430.979718 C99.7370325,463.4488 4,491.005588 4,556.208341 C4,603.588912 78.3927972,629.700731 148.717227,662.224605 C228.573529,699.15681 252.219077,723 380.405573,723 Z"/>
    <g fill="#FFD5D5" transform="translate(110 578)">
      <path stroke="#F00" stroke-width="2" d="M88.5548442,115.648591 C103.54437,112.215669 114.023185,114.910734 119.991289,123.733785 C120.915471,125.100065 123.735607,121.179549 125.203658,124.35003 C131.584119,124.35003 133.872537,121.193762 139.312222,123.47826 C144.751908,125.762757 139.776376,146.422989 122.671585,138.934499 C121.739607,138.549468 114.706838,139.966453 113.856958,139.608646 C94.6888727,131.538725 96.5501103,132.983885 88.5548442,135.648591 L88.5548442,115.648591 Z" transform="rotate(10 114.984 127.384)"/>
      <path stroke="#F00" stroke-width="2" d="M43.1786889,88.0629066 L37.9171914,73.3156832 L43.1786889,64.6665445 C52.623237,28.7964746 63.717503,8.00041613 76.4614869,2.27836903 C89.2054708,-3.44367807 107.374399,4.80682549 130.96827,27.0298797 C117.533846,56.9200862 101.877756,74.8132027 84,80.7092291"/>
      <path stroke="#F00" stroke-width="2" d="M64.321418,63.5694131 C68.2889034,62.9826147 69.2945398,68.4837687 74.3936382,69.0907468 C94.912444,71.5332306 100.713677,90.5106521 93.240744,113.378586 L44.2040072,109.378586 L36.6888346,87.8960018 C38.5310106,80.6322576 40.504974,75.8093198 42.610725,73.4271883"/>
      <path stroke="#F00" stroke-width="2" d="M67.7136644,95.522179 C73.7421591,96.3244236 75.1818443,94.858935 84,99.7060549 C85.3272223,100.435596 106.225918,124.020717 107.574983,127.522997 C108.368413,129.582806 109.064826,131.342583 110.076662,132.071021 C112.808915,134.038016 115.980683,149.183218 115.980683,150.837227 C115.980683,152.491237 114.896199,149.169109 125.873162,169.711886 C126.195291,170.314738 127.2739,174.579885 127.260836,175.26328 L125.01185,219.933717 C124.970196,222.112659 123.450345,229.857265 121.271006,229.857265 L111.833408,229.857265 C109.624269,229.857265 107.574983,222.066404 107.574983,219.857265 L107.574983,174.869108 C107.574983,174.190837 107.402508,173.523706 107.07377,172.930425 L94.8578547,155.058779 C94.1530171,153.786742 92.813329,152.997462 91.3590678,152.997462 L89.6396807,152.997462 C87.9234702,152.997462 86.3985164,154.092254 85.8497104,155.718351 L87.7047477,174.021768 C87.5656592,174.433884 87.494718,174.865925 87.494718,175.300879 L87.494718,237.242762 C87.494718,239.451901 85.703857,251.242762 83.494718,251.242762 L73.4216858,251.242762 C71.2610292,251.242762 69.4908883,239.526896 69.4236246,237.367287 L67.5306438,176.590079 C67.5166464,176.140669 67.5785204,175.692116 67.7136644,175.26328 L65.5998142,156.158049 C66.0032192,154.87797 65.2925348,153.513237 64.0124562,153.109832 C63.7761323,153.035357 63.5298083,152.997462 63.2820269,152.997462 L62.3491782,152.997462 C60.8819916,152.997462 59.5325523,153.800705 58.8330515,155.090409 L47.3060053,176.343381 C46.9298184,177.036975 46.7671684,177.826336 46.83852,178.612146 L51.339745,228.185102 C51.539513,230.38519 52.9179331,236.330658 50.717845,236.530426 C50.6376707,236.537706 48.6771471,236.543169 44.8362743,236.546814 C42.903239,236.546814 38.2467762,231.164471 37.9008466,229.262641 L28.6495485,178.401436 C28.5308333,177.74877 28.5763046,177.076826 28.7818683,176.446105 L36.0815576,154.048827 C36.3647669,153.17987 35.8899244,152.245854 35.0209672,151.962645 C34.8553863,151.908679 34.6823246,151.881188 34.5081713,151.881188 C33.1119985,151.881188 31.8367546,152.673392 31.2181183,153.925026 L18.0451561,180.576754 C17.5589623,181.560429 17.4982068,182.70064 17.8771154,183.730411 L24.8084325,202.567851 C25.3440396,204.023486 24.9898543,205.657541 23.899608,206.760769 L23.1133473,207.556391 C21.9146782,208.769332 19.9596818,208.780902 18.7467407,207.582233 C18.6227645,207.459715 18.509385,207.32692 18.4078172,207.185271 L1.74932353,183.952829 C0.932577828,182.81377 -0.113301495,177.733837 0.440119441,176.446105 C7.80639549,162.53512 13.1425066,152.076629 16.4484528,145.07063 C17.0271938,143.844155 16.4213265,141.862573 17.0885209,140.37318 C17.5655113,139.308385 19.353608,136.224888 20.0688759,134.5529 C21.2576479,131.774062 25.2346689,126.259351 31.999939,118.008766 C37.6616054,113.804889 37.9008466,112.953915 41.9119547,110.70102 C42.3952537,110.429568 45.4047579,100.396701 47.3060053,99.7060549"/>
      <path stroke="#F00" stroke-width="2" d="M33.2021718,146.98773 C34.3160058,145.821012 35,144.240384 35,142.5 C35,138.910149 32.0898509,136 28.5,136 C26.9309389,136 25.4917288,136.555958 24.3686137,137.481631 C22.9221567,138.673802 22,140.47921 22,142.5"/>
      <polygon points="82 115 99.199 115 110.719 125.665 82 125.665"/>
    </g>
    <g transform="translate(169 48)">
      <path fill="#000" stroke="#000" d="M356.543579,377.446359 L373.675053,366.219519 C376.053484,383.631961 374.323071,392.843932 368.483813,393.855432 C362.644554,394.866932 358.664476,389.397242 356.543579,377.446359 Z"/>
      <path fill="#FFD5D5" stroke="#F00" stroke-width="2" d="M320.597091,321.955582 C339.809245,286.328098 356.575894,261.476411 370.897038,247.400523 C278.43703,176.792008 229.638402,139.827896 224.501154,136.508186 C220.115771,133.674335 203.599039,131.513142 174.950958,130.024607 L174.950958,130.024605 C164.476587,129.480364 154.335592,126.159203 145.568493,120.401892 C129.017695,109.98466 127.531149,107.288756 127.531149,103.397766 C127.531149,99.5672878 129.753341,98.047402 134.197726,98.8381085 L134.197724,98.8381224 C134.334576,98.86247 134.468517,98.9010182 134.597375,98.953142 C155.964295,107.596167 167.385736,110.499764 168.861697,107.663931 C167.900968,107.262674 159.375953,101.264185 143.286651,89.668465 C90.5714362,59.9237248 88.6380267,55.3527284 91.3851743,49.7907365 C94.1323219,44.2287446 99.1134496,43.2174625 106.328558,46.7568901 L158.911372,78.9208299 C159.382506,79.2090144 159.998056,79.0607039 160.286241,78.5895689 C160.554847,78.1504419 160.446206,77.5791424 160.035165,77.2692603 L105.480708,36.1409563 C101.91699,33.4542848 101.206004,28.3873431 103.892676,24.8236253 C104.550982,23.950419 105.379671,23.219911 106.328558,22.6763394 C106.328558,22.6763394 106.328558,22.6763394 106.328558,22.6763394 C110.603875,20.2272161 115.416078,21.4517777 120.765167,26.3500244 L175.695726,68.2706583 C176.134766,68.6057144 176.762294,68.5214191 177.09735,68.0823795 C177.389344,67.6997665 177.367356,67.1634275 177.045024,66.8059995 L133.5526,18.5781388 C130.986097,15.7321931 131.21263,11.344536 134.058575,8.77803248 C134.428827,8.44413591 134.833986,8.15111585 135.267034,7.9040483 C135.267034,7.9040483 135.267034,7.9040483 135.267034,7.9040483 C138.86039,5.85392567 142.470352,7.28274279 146.09692,12.1904997 L193.385595,59.6143648 C193.775562,60.0054461 194.408726,60.0063499 194.799807,59.6163834 C195.122839,59.2942732 195.186932,58.7943767 194.955612,58.4011911 L164.529741,6.68501804 C164.487879,6.61386467 164.450464,6.54018769 164.417709,6.46440997 C163.065991,3.33727195 164.350644,1.38028019 168.271668,0.593434686 C172.242788,-0.203463778 174.979568,1.03974451 176.482008,4.32305955 C186.019427,19.7153987 196.209224,34.4522184 207.051398,48.5335187 C209.324193,51.328037 245.166729,83.6503022 244.249235,92.3359119 C338.41318,179.747321 462.835616,204.556183 443.932957,252.594986 C425.030298,300.633789 406.111265,354.792064 341.726875,392.969529 C298.803948,418.421173 291.760687,394.749858 320.597091,321.955582 Z"/>
      <path stroke="#F00" stroke-width="2" d="M342,367.285921 L383,336"/>
      <path fill="#404040" stroke="#404040" d="M217.744408,358.738791 C235.510201,355.384026 253.74323,355.384026 272.443493,358.738791 C271.710052,351.727151 274.135806,348.22133 279.720754,348.22133 C292.635849,328.758299 302.367365,319.026783 308.915302,319.026783 C308.588589,312.775234 311.370468,309.649459 317.260938,309.649459 L325.65754,301.252857 C327.58362,299.859442 329.408807,299.859442 331.133102,301.252857 C333.719543,303.34298 354.451295,385.111253 363.593644,392.29171 C369.688543,397.078682 373.400293,393.584112 374.728894,381.808001 C373.301484,396.357954 369.589734,401.755287 363.593644,398 C346.181345,434.110592 335.872486,452.375113 332.667067,452.793564 C328.029534,453.39897 338.779595,494.573314 343.681647,501.579931 C348.5837,508.586548 341.550219,510.138467 345.481372,522.044037 C358.843689,562.512051 360.615704,629.729981 354.269878,668.599853 C296.042056,674.004833 278.625984,671.584961 240.174709,674.745734 C204.853708,677.649192 204.005757,674.474659 169.235102,673.202555 C148.851788,673.202555 144.48988,670.265976 133.2757,670.265976 C123.413249,659.459507 118.163356,641.05305 112.615426,620.888018 C107.620022,602.731247 89.0099383,576.037948 85.6778086,560.116337 C85.0223792,556.98456 58.4823169,593.110192 56.6529727,595.408668 C40.7128739,615.436576 40.0130846,616.239755 9.574567,577.087649 C-10.5211509,551.239161 9.86975294,535.587107 16.3094671,513.560545 C25.9608444,480.54873 32.4448181,444.622686 40.1661144,427.439479 C40.7418742,426.158165 44.9166204,427.167351 46.2338883,426.200553 C47.4157458,425.333139 45.7505304,422.469285 46.2338883,421.69511 C78.9142709,404.098751 104.345074,392.549741 122.526299,387.048079 C153.720109,377.608792 169.434501,367.861287 217.744408,358.738791 Z"/>
      <path fill="#313131" d="M356.527122,584.200065 C358.877417,614.729741 357.907058,646.321158 354.269878,668.599853 C296.042056,674.004833 278.625984,671.584961 240.174709,674.745734 C204.853708,677.649192 204.005757,674.474659 169.235102,673.202555 C165.733328,673.202555 162.704408,673.115885 160.032365,672.972325 C158.884641,656.227466 160.394809,641.17281 173.507769,647.209635 C209.134851,663.611307 191.897211,591.93867 276.690502,574.466134 C301.238733,569.407716 306.739481,587.78661 329.084161,595.127313 C333.155292,596.464767 345.166553,589.548883 356.527127,584.200063 Z"/>
      <g transform="translate(70 147)">
        <g transform="translate(49 156)">
          <use fill="#FFD5D5" xlink:href="#illu1-a"/>
          <path stroke="#F00" stroke-width="2" d="M-1.11452306,44.2652718 L80.2136477,-1.39991065 L80.6693043,-0.422544714 C101.985405,45.2996668 105.6528,78.0290422 91.4642473,97.7647667 C81.7946578,111.21479 67.5330423,116.623164 51.275056,115.082344 C38.4455228,113.866449 25.1873347,108.077418 18.7657995,101.687433 C11.2169755,94.1756987 4.67993029,75.3102956 -0.983023777,44.9698074 L-1.11452306,44.2652718 Z"/>
          <path fill="#F1C6C6" d="M88.0085692,19.3015221 C95.3909267,38.4977655 99.031443,54.9149888 98.930118,68.5531922 C97.3531984,65.2255748 94.8566286,54.2649752 89.1733475,55.730273 C89.1733475,69.1578489 86.8926983,94.5488139 80.9860288,98.2237792 C75.2165665,101.813378 79.7452709,69.1322019 72.5544378,66.8952515 C49.4650512,77.6370994 33.3796236,82.4907042 29.4127093,81.9416972 C22.5385203,80.9903337 16.8925582,73.4095922 12.4748229,59.1994726 L80.9860288,22.636438 C83.5668413,21.1243995 85.9076881,20.0127609 88.0085692,19.3015221 Z"/>
          <path fill="#F1C6C6" d="M48,91.180821 L51.8146828,89.84979 L58.1567516,90.9089417 C59.1704268,91.0782297 60.2002127,90.7168496 60.8858073,89.9512414 L64.5845864,85.8207893 L68.7874372,84 C71.7877492,95.8521509 70.0245353,102.64103 63.4977955,104.366639 C56.9710558,106.092247 51.8051239,101.696974 48,91.180821 Z"/>
        </g>
        <g stroke="#F00" stroke-width="2" transform="translate(0 11)">
          <path fill="#FFD5D5" d="M19.7527011,99.0507692 L13.9370119,93.7604622 C12.1728401,92.1556635 9.52083682,92.0202063 7.6023351,93.4369039 L2.55319006,97.1653926 C0.99479164,98.3161757 0.241384506,100.263605 0.619527241,102.163583 L4.98592467,124.102542 C9.46622402,143.100137 15.206515,152.598934 22.2067977,152.598934 C29.2070803,152.598934 28.3890482,134.749546 19.7527011,99.0507692 Z"/>
          <circle cx="19.5" cy="122.5" r="7.5"/>
          <path fill="#FFD5D5" d="M164.615418,98.0162265 L159.937012,93.7604622 C158.17284,92.1556635 155.520837,92.0202063 153.602335,93.4369039 L148.55319,97.1653926 C146.994792,98.3161757 146.241385,100.263605 146.619527,102.163583 L150.985925,124.102542 C155.466224,143.100137 161.206515,152.598934 168.206798,152.598934 C175.10825,152.598934 174.410588,135.249984 166.11381,100.552084 L166.113811,100.552083 C165.8803,99.5755201 165.358176,98.6918846 164.615418,98.0162265 Z" transform="matrix(-1 0 0 1 318.908 0)"/>
          <circle cx="151.5" cy="122.5" r="7.5"/>
          <path fill="#FFD5D5" d="M54.9538863,0.324314244 C16.9667989,17.2805546 3.74616787,47.9716742 15.2919933,92.3976731 L19.5178328,123.65905 C20.6904914,154.461625 24.4284672,174.853478 30.7317602,184.834612 C40.1866998,199.806312 70.0325271,220.208987 83.6765114,220.208987 C97.3204957,220.208987 136.950888,197.089202 141.573547,184.834612 C146.196205,172.580022 150.984423,134.128203 150.984423,123.65905 C150.984423,116.679615 153.157245,106.259156 157.50289,92.3976731 C168.278273,47.930555 152.985194,17.2394354 111.623654,0.324314244 L54.9538863,0.324314244 Z"/>
          <path d="M4.41647278 102.924805C11.624171 102.547433 16.2198641 104.886913 18.2035519 109.943244M152.318578 110.423065C155.307544 101.743298 160.914585 99.4486936 169.139701 103.539252"/>
        </g>
        <g transform="translate(4)">
          <polygon fill="#F00" points="136.47 44.276 140.781 123.907 147.576 128.246 162.448 75.168 147.576 33.582"/>
          <path fill="#D70101" d="M151.217282,43.7631944 C148.299747,49.5266458 143.63181,54.2753562 137.213471,58.0093254 L136.470035,44.2762829 L147.576398,33.5818925 L151.217282,43.7631944 Z"/>
          <path fill="#F00" stroke="#F00" d="M136.2887,14.59001 C126.300564,6.00104219 95.9534209,1.16243734 45.2472702,0.0741954302 L19.34045,19.5070867 L14.9630525,27.4734617 L10.2725078,24.253154 L0.833674856,66.8278426 L14.9630525,125.75059 L19.34045,122.765698 L19.34045,41.7405352 L45.2472702,55.7366587 C88.6451731,72.7694954 126.052563,63.3484297 157.469441,27.4734617 C171.2568,8.28931141 151.270904,27.4734617 136.2887,14.59001 Z"/>
        </g>
        <g transform="translate(38 96)">
          <path stroke="#F00" stroke-width="2" d="M35.6993655,28.5 C35.6993655,28.5 31.3924022,69.6726639 13,66.9781627"/>
          <use fill="#FFD5D5" xlink:href="#illu1-b"/>
          <path stroke="#F00" stroke-width="2" d="M11.043045,-0.712168224 C32.214693,-2.96951287 40.3460839,8.13830268 35.0556916,31.8244257 C31.3980402,48.2004475 23.1962947,53.7295957 13.6483099,49.1389072 C5.85734658,45.3929978 -1,35.252873 -1,27.571064 C-1,18.1383225 2.08942218,9.23610577 8.24866162,0.890109561 C8.91440449,-0.0120037179 9.92819287,-0.593301449 11.043045,-0.712168224 Z"/>
          <path fill="#F1C6C6" d="M31.3995799,39.6976586 C28.3592889,41.9506269 24.8945233,43.8019563 21.0052833,45.2516469 C16.1798225,45.2516469 9.51139473,41.1677646 1,33 C1.01966581,33.1522631 1.04008951,33.3036965 1.06127109,33.4543001 C5.74143688,45.9215008 22.9390544,59.2752874 31.3995799,39.6976586 Z"/>
          <path fill="#F00" stroke="#F00" d="M20.6135591,36.6740238 L20.6135591,36.6740238 C22.455813,36.0038758 23.4700462,34.0269149 22.9398256,32.1396248 C20.6433246,23.9654175 19.8679075,17.3927578 20.6135591,12.42165 C21.879977,3.97869875 15.7781902,3.52453167 13.3122164,10.6659005 C11.8116722,15.0114211 12.7871189,22.9482426 16.2385565,34.4763649 L16.2385742,34.4763596 C16.7717269,36.2571393 18.6475398,37.2685408 20.4283196,36.7353881 C20.4906462,36.716728 20.5524186,36.6962646 20.6135591,36.6740238 Z" transform="rotate(10 17.855 21.274)"/>
          <polygon fill="#FFD5D5" points="14.5 9 18 16 11 16"/>
        </g>
        <g transform="translate(99 96)">
          <g transform="matrix(-1 0 0 1 37.635 0)">
            <use fill="#FFD5D5" xlink:href="#illu1-c"/>
            <path stroke="#F00" stroke-width="2" d="M12.043045,-0.712168224 C33.214693,-2.96951287 41.3460839,8.13830268 36.0556916,31.8244257 C32.3980402,48.2004475 24.1962947,53.7295957 14.6483099,49.1389072 C6.85734658,45.3929978 4.73430878e-16,35.252873 0,27.571064 C0,18.1383225 3.08942218,9.23610577 9.24866162,0.890109561 C9.91440449,-0.0120037179 10.9281929,-0.593301449 12.043045,-0.712168224 Z"/>
          </g>
          <path stroke="#F00" stroke-width="2" d="M23.2047495,25.5 C23.2047495,25.5 18.9058695,69.6726639 0.513467302,66.9781627" transform="matrix(-1 0 0 1 23.718 0)"/>
          <g transform="matrix(-1 0 0 1 28 5)">
            <path fill="#F00" stroke="#F00" d="M10.6135591,31.6740238 L10.6135591,31.6740238 C12.455813,31.0038758 13.4700462,29.0269149 12.9398256,27.1396248 C10.6433246,18.9654175 9.86790748,12.3927578 10.6135591,7.42165002 C11.879977,-1.02130125 5.77819019,-1.47546833 3.31221645,5.66590049 C1.81167223,10.0114211 2.7871189,17.9482426 6.23855646,29.4763649 L6.23857417,29.4763596 C6.77172692,31.2571393 8.64753985,32.2685408 10.4283196,31.7353881 C10.4906462,31.716728 10.5524186,31.6962646 10.6135591,31.6740238 Z" transform="rotate(10 7.855 16.274)"/>
            <polygon fill="#FFD5D5" points="11.76 6.629 15.26 13.629 7.47 13.569" transform="scale(1 -1) rotate(-70 -3.1 0)"/>
          </g>
          <path fill="#F1C6C6" d="M35.3995799,39.6976586 C32.3592889,41.9506269 28.8945233,43.8019563 25.0052833,45.2516469 C20.1798225,45.2516469 13.5113947,41.1677646 5,33 C5.01966581,33.1522631 5.04008951,33.3036965 5.06127109,33.4543001 C9.74143688,45.9215008 26.9390544,59.2752874 35.3995799,39.6976586 Z" transform="matrix(-1 0 0 1 40.4 0)"/>
        </g>
        <g stroke="#F00" stroke-width="7" transform="translate(34 82)">
          <path d="M0,12.8497274 C5.26957953,3.49585105 13.4191226,-0.75120475 24.4486292,0.108560033"/>
          <path d="M79,12.8497274 C84.2695795,3.49585105 92.4191226,-0.75120475 103.448629,0.108560033" transform="matrix(-1 0 0 1 182.449 0)"/>
        </g>
        <g transform="translate(64 172)">
          <path fill="#D70101" d="M18.2924528,16.6300416 L55.852032,0.30792758 C62.7152775,14.5193956 60.2641514,26.2723523 48.4986537,35.5667975 C48.5285111,35.4725751 48.5620746,35.3740673 48.5993444,35.2712741 C50.6351204,29.6564262 40.5354569,23.4455435 18.3003539,16.6386261 L18.2924528,16.6300416 Z"/>
          <path fill="#FFD5D5" d="M39.036421,15.5492063 C44.2085323,16.4204086 46.794588,18.2917246 46.794588,21.1631541 C46.794588,25.4702984 52.248013,25.2345169 51.77384,21.1631541 C51.2996669,17.0917913 44.8326427,14.5273416 50.1742672,12.4279296 C53.7353503,11.0283216 50.0227349,12.0687472 39.036421,15.5492063 L45.2824545,13.4941664"/>
          <polygon fill="#FFF" points="6.083 21.795 10.387 24.738 59.343 11.138 55.962 .481"/>
          <path stroke="#F00" stroke-width="2" d="M0.809984424,24.2273269 L55.852032,0.30792758 C64.2525322,17.702532 58.6988374,31.4139521 39.1909475,41.4421878"/>
        </g>
        <g transform="translate(20 111)">
          <polygon fill="#F1C6C6" points="107.436 38.434 126.275 36.791 134.24 33.464 128.457 40.567 102.781 42.341" transform="rotate(-50 118.51 37.902)"/>
          <polygon fill="#F1C6C6" points="2.436 38.434 21.275 36.791 29.24 33.464 23.457 40.567 -2.219 42.341" transform="scale(-1 1) rotate(-50 0 66.876)"/>
          <polygon fill="#F1C6C6" points="55 58 67.337 70.337 79.729 58"/>
          <path stroke="#F00" stroke-width="2" d="M67.0056805,0.0417323614 L67.0056805,13.2463771 L67.0056805,40.4261881 L67.0056805,59.0303626 L78.522882,57.3336752 C79.9949698,57.1168106 81.0856481,55.8536845 81.0856481,54.3657085 L81.0856481,49.2383049"/>
          <path fill="#FFD5D5" stroke="#F00" stroke-width="2" d="M68,11 C64.6862915,11 62,13.6862915 62,17 C62,20.3137085 64.6862915,23 68,23"/>
        </g>
      </g>
      <path stroke="#F00" stroke-width="2" d="M167.812363 108.052129C175.33372 106.054262 181.362828 107.897584 185.899687 113.582094M169.719589 97.5328814C184.496238 82.9011845 202.037498 77.6540401 222.343367 81.7914482M168.599563 89.1679172L191.58325 78.3689599M190.383366 93.7090895C214.709876 92.7208181 227.879745 101.151324 229.892974 119.000607M186 63.4648627C189.877031 61.8216209 192.674747 61 194.393149 61M169 71.4648627C172.877031 69.8216209 175.674747 69 177.393149 69M153.857397 84.7757952C154.344676 81.1351801 156.382986 79.1398255 159.972326 78.7897316M202 54.4648627C205.877031 52.8216209 208.674747 52 210.393149 52"/>
    </g>
    <path stroke="#F00" stroke-width="2" d="M534,302 C542.489122,290.968352 558.822455,286.4562 583,288.463544"/>
    <path stroke="#000" stroke-width="7" d="M254 507C278.111792 558.530563 279.274432 592.530563 257.487921 609M465 445C474.978233 479.48895 486.644899 498.48895 500 502M452 397C461.366536 405.552872 468.033202 412.886205 472 419M478 370C482.812692 401.377703 488.479359 423.377703 495 436M497 401C513.166468 420.97291 524.499801 437.306243 531 450M349 641C360.500175 584.632267 390.833508 552.632267 440 545"/>
  </g>
</svg>
