<svg xmlns="http://www.w3.org/2000/svg" width="507" height="781" viewBox="0 0 507 781">
  <g fill="none" fill-rule="evenodd">
    <path fill="#FFC4C4" d="M78.3058732,518.952103 C61.2479871,525.748165 42.9287983,580.282394 42.9287983,595.736444 L36.1103291,603.955244 C36.6412262,609.471712 37.2842591,612.876705 38.039428,614.170224 C38.7945969,615.463743 51.9051121,621.877918 77.3709736,633.412749 C110.586819,601.67989 125.207802,577.965551 121.233924,562.269733 C115.273106,538.726007 95.3637594,512.156042 78.3058732,518.952103 Z"/>
    <path fill="#FFC4C4" d="M94.1532398,637.351401 C109.305156,635.835422 117.908715,652.659314 118.891067,652.659314 C119.959782,652.659314 131.091913,650.934205 134.940063,649.74705 C138.788214,648.559896 140.285301,661.687774 132.833072,664.779356 C127.864919,666.840411 120.909874,666.483619 111.967937,663.70898 C114.932963,664.336964 119.936906,676.885009 126.979765,701.353115 C127.633577,739.811747 125.758666,759.041062 121.355034,759.041062 C99.4221014,759.041062 107.888444,713.815744 106.181045,703.960648 C104.473646,694.105552 84.1343079,671.647144 85.5036311,686.886851 C91.6567068,755.366718 74.9114497,783.742444 70.4552456,780.116988 C65.9990415,776.491531 68.5720601,682.993789 61.5823407,682.993789 C56.9225277,682.993789 51.689033,691.058548 45.8818565,707.188065 C53.6645893,747.362689 53.9246229,767.450001 46.6619573,767.450001 C39.3992918,767.450001 33.0174392,747.96035 27.5163998,708.981048 C28.3384043,693.44834 35.1420213,691.430242 31.7402128,686.886851 C29.4723404,683.857923 24.5280071,691.222656 16.9072127,708.981048 C22.595309,717.51108 26.9839331,740.392356 20.4126183,740.392356 C13.8413034,740.392356 2.93881851,719.953671 0.846581126,703.960648 C-0.50526562,693.627157 13.7982448,671.209806 43.7571123,636.708595 C43.703075,636.646385 43.649142,636.584272 43.5953143,636.522259 C34.0531459,625.528996 34.0531459,612.950589 43.5953143,598.787036 C57.1952023,569.130154 61.4081625,578.493422 64.5632826,592.253983 C90.2127483,601.460312 100.076067,616.492785 94.1532398,637.351401 Z"/>
    <path fill="#95C6FF" d="M60.5670759,533.857679 C64.7121561,556.440397 105.077149,625.344935 118.701376,600.80046 C127.38217,585.161735 134.005583,573.196528 138.571614,564.904841 L138.571615,564.904841 C140.170059,562.002146 143.818953,560.944842 146.721648,562.543286 C147.976714,563.23442 148.943027,564.351864 149.445827,565.693523 L188.608666,670.194693 C257.755934,680.770272 397.328178,663.524932 407.633827,660.910902 C419.127003,570.936966 393.988082,521.944902 374.726146,460.618513 L424.320753,401.604795 C432.043424,392.415418 436.277327,380.796557 436.277327,368.793045 L436.277327,363.955888 L418.092421,387.377403 L389.850619,300.863676 C389.336453,299.288621 387.642804,298.4286 386.067749,298.942766 C385.705555,299.061002 385.369198,299.247148 385.076663,299.491254 L317.010329,356.288956 C294.901867,356.288956 293.705346,353.288367 275.559813,356.288956 C234.490156,377.422562 203.887131,386.395152 183.750737,383.206726 C169.663996,380.976211 146.073509,391.358638 112.979279,414.354006 L112.979279,414.354007 C108.280681,417.618805 104.511647,422.049133 102.042049,427.210219 C75.8272735,481.995152 62.0022825,517.544305 60.5670759,533.857679 Z"/>
    <path fill="#FFC4C4" d="M141.549592,170.525117 C138.960482,250.342871 139.70988,297.065914 143.797788,310.694246 C151.761531,337.243898 168.957403,356.576872 178.080818,363.341696 L184.991804,385.809752 C194.577508,411.093357 214.020732,421.702546 243.321476,417.637321 C269.869407,413.954025 280.234666,392.431767 274.417252,353.070548 L274.417252,353.070548 C273.026306,343.659264 273.119749,334.088074 274.694177,324.705741 L277.045415,310.694246 C288.829693,310.694246 296.770807,292.934347 300.868757,257.41455 C293.316668,249.414448 288.1585,248.119009 285.394254,253.52823 L280.851179,184.162355 C288.974951,178.031458 293.634232,171.604369 294.829022,164.881086 C280.551647,166.691637 271.13324,164.829327 266.573803,159.294156 C244.482269,149.514774 214.984608,145.333343 178.080818,146.74986 L150.296974,166.290591 L147.905889,176.4797 L141.549592,170.525117 Z"/>
    <path fill="#7E0000" d="M174.313669 247.872761L181.232513 242.583303 174.08135 239.033246C174.129223 238.169381 174.198224 237.309609 174.288354 236.453931 176.248866 217.841116 197.779871 229.850785 190.574557 273.594126 188.611058 279.642436 186.104178 279.109441 183.696827 276.262391 178.394953 266.3779 175.267233 256.91469 174.313669 247.872761zM228.952057 248.023093L238.481692 241.832524 231.499716 238.613524C232.012659 237.217771 232.580089 235.853433 233.202006 234.52051 241.115447 217.560027 257.563446 235.925202 236.50925 274.939523 232.683587 280.01906 230.486812 278.698943 229.137526 275.223248 227.522504 265.261012 227.460681 256.194294 228.952057 248.023093z"/>
    <path stroke="#7E0000" stroke-width="7" d="M162,225.849727 C167.26958,216.495851 175.419123,212.248795 186.448629,213.10856"/>
    <path stroke="#7E0000" stroke-width="7" d="M241,225.849727 C246.26958,216.495851 254.419123,212.248795 265.448629,213.10856" transform="matrix(-1 0 0 1 506.449 0)"/>
    <path fill="#7E0000" d="M221.621748,321.35345 C225.513765,319.366604 232.898814,315.596591 243.776895,310.04341 L243.776897,310.043413 C248.203966,307.783427 253.624894,309.540195 255.88488,313.967263 C256.410191,314.996289 256.732456,316.116835 256.834078,317.267712 C257.733149,327.449744 252.070823,335.80324 239.8471,342.328202 C226.765974,324.570664 212.25384,326.135699 221.621748,321.35345 Z"/>
    <path stroke="#7E0000" stroke-width="3" d="M228,345.250341 C233.177042,344.014981 237.877896,342.019481 242.10256,339.26384"/>
    <path fill="#FFF" d="M197.410221,329.476893 L200.302586,336.702577 L237.202933,321.084505 C241.798123,319.139591 244.74926,314.596234 244.657993,309.607233 L197.410221,329.476893 Z"/>
    <path fill="#FFC4C4" d="M389.638521,309.556492 L444.267367,247.022207 L277.194657,135.119592 C216.745382,135.368412 186.520744,123.907081 186.520744,100.735601 C186.520744,88.7374646 218.337134,112.544433 225.602672,109.008982 C232.86821,105.473531 143.484246,69.75819 150.550332,51.7725408 C157.616419,33.7868915 213.827858,84.6054822 215.982833,78.3257488 C218.348428,71.4322589 167.512236,49.2593906 159.591473,25.4260941 C151.67071,1.59279761 208.899847,42.0560381 231.620292,66.9679516 C233.753483,69.3068961 184.740148,11.7944845 190.971211,7.76051108 C197.202273,3.72653766 209.505812,14.2784112 247.556015,57.5070059 C229.530376,21.770241 223.694316,2.70542652 230.047838,0.31256253 C235.2979,0.31256253 260.864998,48.718253 263.969553,48.718253 C271.746925,50.1409662 298.234278,79.9002952 302.425864,91.0450879 C441.673603,174.328018 509.849245,223.551775 506.952789,238.716359 C502.608106,261.463235 432.932627,381.679524 415.721125,388.927352 C404.246791,393.759238 395.552589,367.302284 389.638521,309.556492 Z"/>
    <path fill="#7E0000" d="M191.591985,301.429302 C192.773581,307.679618 196.705964,310.804776 203.389133,310.804776 C210.072302,310.804776 213.275925,309.215617 213,306.037298 L191.591985,301.429302 Z"/>
  </g>
</svg>
