<svg xmlns="http://www.w3.org/2000/svg" xmlns:xlink="http://www.w3.org/1999/xlink" width="148" height="160" viewBox="0 0 148 160">
  <defs>
    <path id="body3-a" d="M41.6001011,0.332635325 C26.6309594,7.91953108 11.931405,18.3922581 0.840441569,42.6419268 C4.12267904,43.65744 10.0761373,44.9156144 18.7008164,46.4164501 C31.637835,48.6677035 54.8114939,58 69.5,58 C84.1885061,58 97.0495192,52.9818262 104.36148,49.3758226 C109.23612,46.9718202 100.702168,32.244358 78.7596227,5.19343597 L41.6001011,0.332635325 Z"/>
    <path id="body3-b" d="M9.50910102,13.6130396 C-4.16286295,10.8677302 -0.171067964,-1.42172951 3.64575496,0.135901085 C7.46257789,1.69353168 12.4149298,5.11330857 15.7149115,4.34144675 C19.0148933,3.56958493 23.181065,16.3583489 9.50910102,13.6130396 Z"/>
    <linearGradient id="body3-d" x1="50%" x2="50%" y1="139.424%" y2="34.284%">
      <stop offset="0%" stop-color="#FFC162"/>
      <stop offset="100%" stop-color="#FFFCD0"/>
    </linearGradient>
  </defs>
  <g fill="none" fill-rule="evenodd">
    <g transform="translate(6 102)">
      <use fill="#FF6B6B" xlink:href="#body3-a"/>
    </g>
    <g transform="translate(44 31)">
      <path fill="#FFC4C4" d="M8.43620417,54.5520772 L4.02518827,71.7634177 C6.22461773,81.4752097 12.930019,86.3311058 24.1413922,86.3311058 C30.1370881,85.7580844 34.3726491,83.6283112 36.8480751,79.9417862 C39.3235011,76.2552612 40.5612141,71.4167792 40.5612141,65.4263403 L16.71588,38.0340183 L8.43620417,54.5520772 Z"/>
      <path fill="#FFC4C4" d="M12.7548125,48.6740685 C14.3232242,54.603825 15.5876335,58.331027 16.5480404,59.8556746 C19.6632517,64.8010778 40.6972934,70.1223188 45.0042268,66.7342613 C49.3111601,63.3462038 47.662616,63.9035708 49.1856885,59.8556746 C50.7087609,55.8077784 47.0379852,44.1976647 47.0379852,40.7395282 C47.0379852,38.4341039 47.7538863,34.9920518 49.1856885,30.4133719 C49.1856885,16.5027063 44.1469284,6.36491564 34.0694083,0 L15.3978663,0 C2.34443925,5.60093006 -2.28021632,15.7387207 1.52389957,30.4133719 L4.09720768,41.7898105 L10.2703677,61.0635915"/>
      <path fill="#FFC4C4" d="M0.528518536,4.52891067 L0.572859154,4.86562135 L2.87260444,22.3292661 L8.14074521,22.3292661 L8.47068692,13.4290884 L6.2824346,9.86701532 C5.81976961,6.79254472 5.72968689,5.0131765 6.01218645,4.52891067 C6.294686,4.04464484 7.24727821,3.67613712 8.86996307,3.42338751 L8.47068692,0.731581496 L0.528518536,0.413637663 L0.528518536,4.52891067 Z" transform="translate(39 22)"/>
      <g transform="matrix(-1 0 0 1 52 26)">
        <path fill="#7E0000" d="M4.94378313,2.36770954 L3.96684148,6.4221459 L6.57048864,6.4221459 C7.10286102,8.96946103 7.20967123,12.4186712 6.49145254,16.7789652 C5.81193535,18.8721314 4.94436801,18.6876755 4.1112453,17.702384 C1.48823448,12.8122023 0.402890169,8.21997099 0.855212358,3.9256902 C1.20007118,0.651650876 3.2946791,0.115491753 4.94378313,2.36770954 Z"/>
        <path fill="#FFC4C4" d="M7.01344982,0.557085653 L7.01344982,6.01351893 L5.027182,10.9187817 L1.39406541,18.8358608 L1.11363817,24.4505788 L7.2967911,24.4505788 C7.64645591,24.4505788 7.99342878,24.3894495 8.32204061,24.2699516 L10.5714181,23.4519778 C10.9384439,20.3745665 10.2714982,18.8358608 8.57058082,18.8358608"/>
      </g>
      <g transform="translate(28 49)">
        <mask id="body3-c" fill="#fff">
          <use xlink:href="#body3-b"/>
        </mask>
        <use fill="#FFF" xlink:href="#body3-b"/>
        <path stroke="#FFC4C4" stroke-linecap="square" d="M1 9L6 0M4.5 12.5L7.625 1.45833333M9 13L11 2M13.5 14.5384615L13.5 3.46153846M18.5 12.55L16.5 4.45" mask="url(#body3-c)"/>
      </g>
    </g>
    <g transform="translate(86 63)">
      <path fill="#FFDA91" d="M36.2478768,43.1366506 L27.3289735,6.39858784 C33.9342433,-1.09748755 40.6615921,-3.72230537 48.9666085,8.41770184 L56.3010363,40.7610871 L36.2478768,43.1366506 Z"/>
      <path fill="url(#body3-d)" d="M0.866956607,24.6845287 C36.384901,29.0295407 52.3764524,23.4680311 48.8416106,8 C62.7687133,37.2220867 64.7634074,61.7584501 54.8256932,81.60909 C48.1155712,84.0467133 39.1095417,83.542796 35.7395076,84.8259243 C33.8410413,85.5487585 26.8002144,88.9296313 14.847643,93.1572137 C13.3860556,93.674172 10.6789123,94.2159889 6.72621319,94.7826644 L0.866956607,24.6845287 Z"/>
      <g transform="translate(23 43)">
        <polygon fill="#FF6B6B" points="0 11.963 8.558 0 22.748 3.347 27 14.775 18.383 27 4.725 23.9"/>
        <polygon fill="#833535" points="0 12 8 23.472 4.49 24"/>
        <polygon fill="#F35656" points="8.308 24 11 9.067 10.346 8 0 12.385"/>
        <polygon fill="#FF6B6B" points="0 12 8.913 0 11 7.207 10.454 7.943"/>
        <polygon fill="#FD9C9C" points="9 0 11.189 7.744 12.034 8 23 3.677"/>
        <polygon fill="#F35656" points="12 7.215 12 8.177 22.698 17 24 16.56 23.305 3"/>
        <polygon fill="#B44E4E" points="23 16.84 23 17.997 9 23 11.559 8.401 12.538 8"/>
        <polygon fill="#662A2A" points="23.012 18 24 18.434 19.395 27 9 23.401"/>
        <polygon fill="#833535" points="23.685 16.858 24.049 18 27 14.592 23 3"/>
      </g>
    </g>
    <path fill="#320000" d="M44,54.4863724 L45.8206042,62 L62.8913365,54.4863724 C81.5260021,55.5588209 91.1626408,53.797405 91.8012528,49.2021247 L88.5701561,40.6454635 L44,54.4863724 Z" opacity=".3"/>
    <path fill="#F35656" d="M0,56.4077237 L0,36.4815268 L29.2174641,7.53691548 C45.4658506,-3.06797828 61.1515754,-2.48157913 76.2746385,9.29611292 C85.2880036,23.576882 91.1095332,37.6740161 93.7392274,51.5875154 L44.8778571,68.5232324 C40.706651,55.3969592 37.0537839,45.8306333 33.919256,39.8242547 L8.0448381,44.8768922 L5.01963454,56.4077237 L8.0448381,62 L0,56.4077237 Z"/>
    <path stroke="#A500FF" stroke-linecap="square" stroke-width="5" d="M32.5 42.5L48.5 20.5M9.5 45.5L5.5 40.5M32.5 13.5L30.5 9.5"/>
    <g fill="#FBF6BC" transform="translate(17 1)">
      <polygon points="31.407 27.638 26 31.201 33.001 33.948 34.377 39 37.859 33.319 44 33.948 41.837 29.265 44 24.278 37.859 24.278 31.407 21"/>
      <polygon points="3.859 21.709 5.087 28.002 0 30.819 6.989 32.404 10.383 37 10.383 30.819 16 28.002 10.383 28.002 14.239 20 8 26.03"/>
      <path d="M43.2513247,0 L36,3.64728583 L45.2778727,3.64728583 L47.5496529,10 L49.5994281,4.92335639 L55,5 C52.776427,3.06925867 48.5568739,1.40279916 43.2513247,0 Z"/>
      <polygon points="62.916 33 62.916 36.358 59 37.874 62.916 39.009 62.916 42 66.829 39.009 71 40.215 68.233 36.358 69.973 33 66.829 34.878"/>
    </g>
    <path stroke="#A500FF" stroke-linecap="square" stroke-width="5" d="M37.5 44.5L54.5 32.5M73.5 18.5L82.5 18.5"/>
    <g transform="translate(49 52)">
      <path stroke="#7E0000" stroke-width="2" d="M19,10.4257412 C20.2585375,5.22350555 22.6907064,2.75465925 26.2965066,3.01920226"/>
      <path fill="#FFC4C4" d="M12.3400609,12.2922205 C-6.10030223,2.67223669 -1.01943205,26.5444759 9.10828885,24.9477694"/>
      <path fill="#7E0000" d="M25.0803994,13.8774562 L27.474835,12.0469095 L25,10.8183254 C25.0165674,10.5193635 25.0404469,10.2218184 25.0716385,9.9256902 C25.7501218,3.484269 33.201454,7.64050958 30.7078787,22.7789652 C30.0283615,24.8721314 29.1607941,24.6876755 28.3276714,23.702384 C26.4928278,20.2816133 25.4104038,17.0066374 25.0803994,13.8774562 Z"/>
      <path stroke="#7E0000" stroke-width="2" d="M41,0 C42.6220815,0.228722216 43.5750737,1.37479488 43.8589764,3.43821799 C45.2925267,3.81634004 47.156236,4.28641345 49.4501043,4.84843823" transform="matrix(-1 0 0 1 90.45 0)"/>
      <path fill="#7E0000" d="M38.6196195,28.0105287 L45.8217811,29.4790791 C39.6000747,30.8075989 36.4892214,30.8949705 36.4892214,29.7411938 C36.4892214,28.587417 37.1993541,28.0105287 38.6196195,28.0105287 Z"/>
    </g>
  </g>
</svg>
