<svg xmlns="http://www.w3.org/2000/svg" width="94" height="92" viewBox="0 0 94 92">
  <g fill="none" fill-rule="evenodd">
    <path stroke="#7E0000" stroke-linecap="round" stroke-linejoin="round" d="M91.028147,63.7561168 C93.9013845,54.1956755 81.3151636,52.8489715 77.6742195,53.2341757 C75.2469234,53.4909784 73.4901033,52.5440747 72.4037592,50.3934646 C68.6227937,56.597982 86.5602534,62.609413 84.158005,60.2350527 C82.556506,58.6521458 79.2041261,57.8827704 74.1008652,57.9269265 L75.1137449,63.5076417 L79.4834588,61.5866564 L77.3746162,60.2350527 L76.792162,64.6835892 L83.3254295,63.7561168 C86.7295831,62.9236059 88.9235101,63.2327633 89.9072106,64.6835892 C91.3827613,66.8598279 84.1291485,73.8264259 83.3254295,73.8264259 C82.5217104,73.8264259 84.9948411,68.239707 88.1549094,72.861963 C91.3149778,77.484219 77.8413543,81.6108805 76.792162,77.8930505 C76.0927005,75.4144972 72.7398745,75.9614641 66.7336841,79.5339511 C61.9915906,82.3062658 59.8673706,85.2819558 60.3610241,88.4610211 C61.1015043,93.229619 64.4585512,84.3154152 60.3610241,79.5339511 C56.263497,74.7524871 52.959269,85.0382892 54.0904736,89.1669659 C55.2216782,93.2956426 59.1631187,94.9181307 54.9839932,76.0580617" transform="rotate(100 72.658 71.103)"/>
    <path stroke="#696767" d="M42.0423709 39.8554691C41.8279224 40.5085463 41.5823927 42.4771767 41.3990254 41.8147007 40.6384302 39.0667967 41.0059124 36.0861941 40.2389633 33.3400567 34.1097175 11.3936853 37.754009 42.536752 40.6343271 41.4963696 45.710645 39.6627832 38.0873791 20.0764976 38.3388252 25.4679555 38.6394444 31.9137758 42.7534105 38.5271514 40.7824126 44.6715911 39.3006861 49.2907636 37.8036755 35.4291586 36.6553633 30.7160229 36.3064359 29.2838846 35.8595706 24.9034704 36.3081889 26.3075759 37.1144785 28.8311374 36.874451 31.6221135 37.7443725 34.1244528 39.8454456 40.1682146 47.005809 57.9542568 45.1781967 51.8222589 34.5988454 16.3264593 35.7172772 21.9137569 35.950462 36.5455284 39.0412192 49.8783328 41.0718555 59.1196854 42.0423709 64.2695864 46.1202648 67.5326702 58.8013411 70.2147254 53.8917318 56.8871368 50.6186589 48.0020777 50.6186589 42.9779324 53.8917318 41.8147007M47.8053962 28.8672399C50.7280632 30.303658 53.9638183 31.2283215 56.5733974 33.1764943 61.357478 36.748034 73.7766852 49.7098526 69.7815028 45.2734305 65.2037231 40.1900672 60.0820823 35.5972172 54.8185308 31.227815 52.9412673 29.6694529 61.7215727 37.9448948 59.5692278 36.7959724 56.7829392 35.3086506 50.1439096 28.4624084 52.8100546 30.1556897 58.4169471 33.7166538 63.2599934 38.3574953 68.4849628 42.458398"/>
    <path stroke="#7E0000" stroke-linecap="round" stroke-linejoin="round" d="M10.7148329 18.6692211C2.64846649 21.8925219-.458849797 19.3847591 1.39288408 11.1459328 2.91950796 10.65014 4.30171384 12.5008927 5.53950173 16.6981907 4.48417994 4.57954589 7.01287067 9.36032986 9.76743391 15.2061538 10.838874 11.3158785 12.1491-.731843825 12.6401239 15.2061538M45.8617691 7.69853541C42.5592911-2.72119225 52.0361286-1.07608494 51.0718284 7.69853541 50.6418519 5.38801521 54.5672074-1.84234862 55.3937805 9.38665899 58.4021724 3.21624071 65.273509 2.04536196 61.6181539 10.060045"/>
  </g>
</svg>
