<svg xmlns="http://www.w3.org/2000/svg" width="87" height="139" viewBox="0 0 87 139">
  <g fill="none" fill-rule="evenodd" transform="translate(1 1)">
    <path stroke="#A500FF" d="M28.9289044,18.616295 C41.4150763,31.8619314 21.369361,12.0125384 27.678546,2.08125948 C30.5473933,-2.43458886 34.2950384,11.4188573 39.3875321,13.0588814 C42.0870701,13.9282604 36.6371021,7.82182298 36.6995002,4.98643385 C36.7216149,3.98153169 38.2312036,2.69582874 41.4098198,0.703240429 C43.0481556,-0.323787866 45.5367951,1.15918669 46.9230891,2.50719265 C56.7790492,12.0909404 45.5819426,10.6855108 51.6787462,4.6189621 C53.5388362,2.76810267 56.6784071,-0.936315813 58.5938964,0.857149051 C61.9008428,3.95342953 60.7136198,9.66613088 61.7734815,14.0706218"/>
    <path stroke="#7E0000" d="M55.8439603,56.608258 C44.0654893,42.5176341 23.4066141,58.174015 52.083814,63.0878683 C55.8439603,63.0878683 49.4359784,55.7428905 48.1312401,59.4115437 C47.5027278,61.1787898 48.1312401,67.3889688 53.7426166,67.268244 C54.6871373,67.2479234 62.989226,67.3889688 64.2152899,66.2573909 C65.6389988,64.9433995 63.0195134,55.6965226 60.644781,56.608258 C57.028649,57.9966061 64.7340547,75.3987602 64.8459453,79.2233711 C65.1529028,89.7156944 46.4618827,76.8810386 54.9061824,74.0927224 C59.6623774,72.5222221 75.4791687,83.8290478 78.3168683,86.6570911 C88.5393242,96.8447613 68.7100391,88.577215 68.7100391,94.7249836 C68.7100391,103.659598 50.3892239,112.87826 42.6497634,91.6743676 C41.1891443,87.6726919 45.7467403,73.3030724 48.1312401,66.2573909"/>
    <path stroke="#A500FF" d="M0.0620896852,124.68439 C4.27766647,110.401798 14.8897858,100.344934 28.1641337,93.7547227 C30.8785103,92.4071375 35.918397,88.7625772 36.9953865,91.5952297 L40.0986138,93.0782406 C75.8111265,187.007789 25.7271361,60.6319315 46.8598554,133.763806 C47.5010048,135.982567 48.187506,129.231207 49.5884524,127.395091 C51.7715018,124.53393 53.8650013,119.287296 57.4031925,119.945436 C60.3147081,120.487009 55.3406781,126.60695 57.2982006,128.829185 C60.0147829,131.913127 64.3077726,116.458992 62.4487705,129.98171 C62.1402269,132.226113 58.3119477,137.47325 60.3274563,136.438714 C63.6091944,134.754236 63.3390514,127.636945 67.0278503,127.631323 C69.9640921,127.626848 63.7968056,135.523808 66.5899862,136.429169 C69.604163,137.406162 70.1699504,130.38335 73.2522013,129.648838 C75.4581416,129.123154 76.5897645,133.583775 78.8561454,133.506098 C81.3616408,133.420226 82.9874187,130.664953 85.0530553,129.244381"/>
  </g>
</svg>
