<svg xmlns="http://www.w3.org/2000/svg" width="73" height="44" viewBox="0 0 73 44">
  <g fill="none" fill-rule="evenodd" transform="translate(-3 -10)">
    <text fill="#FFF" font-family="ComicSansMS, Comic Sans MS" font-size="14" transform="rotate(-23 30.5 20.5)">
      <tspan x="2" y="26">Hire Me.</tspan>
    </text>
    <path stroke="#7E0000" stroke-linecap="round" stroke-linejoin="round" d="M41.8307194,43.8030852 C43.6128593,35.4128543 30.7864594,31.6231578 28.5503213,33.4502066 C26.789594,34.6212562 37.658449,38.8168731 36.9359137,40.0028298 C35.7973856,41.8715899 28.9032409,37.2425204 25.6255761,38.8903299 C24.8041498,39.3032928 24.7788951,40.3234781 25.6255761,40.7148668 C28.6424439,42.1094513 38.156134,46.9652765 38.4524996,43.8030852 C38.7488651,40.640894 25.5187822,45.895688 27.8468568,48.604527 C28.3158332,49.150206 31.8012174,48.3911525 38.3030095,46.3273666 C39.8693296,48.2698905 30.2456853,53.3740786 32.7044443,52.9782083"/>
    <text fill="#FFF" font-family="ComicSansMS, Comic Sans MS" font-size="8" transform="rotate(14 67 46.5)">
      <tspan x="56" y="50">pleaz.</tspan>
    </text>
  </g>
</svg>
