<svg xmlns="http://www.w3.org/2000/svg" width="211" height="224" viewBox="0 0 211 224">
  <g fill="none" fill-rule="evenodd" transform="translate(.714 .885)">
    <path stroke="#7E0000" stroke-linecap="round" stroke-linejoin="round" d="M99.6682124,77.8194179 C99.6682124,79.8893759 98.1416263,81.6450291 96.0847665,81.9405666 L92.9227601,82.3948958 L92.9227601,73.7018313 L92.9227601,67.4484844 C91.1345086,67.1105869 89.7842324,65.5752972 89.7842324,63.7324128 C89.7842324,61.8895284 91.1345086,60.3542387 92.9227601,60.0163413 L92.9227601,54.8316213 M74.934014,33.5750094 C92.7516994,24.7224354 112.358674,32.7697959 104.069985,36.4190171 C98.5441919,38.8518312 94.8204701,45.0348924 92.9227601,54.8316213"/>
    <path stroke="#7E0000" stroke-linecap="round" stroke-linejoin="round" d="M52.1005074,42.5311456 C50.6393002,31.1955096 49.4588761,19.1084323 53.087618,5.758061 C53.6224555,3.79035977 54.0091773,11.5441809 56.0140002,11.1343522 C61.0189711,10.1112291 63.7848941,3.95374429 68.7006728,2.56641877 C91.7190803,-3.92981032 90.5335955,3.07180447 110.856603,10.6291574 C116.945132,12.8932498 126.613778,10.0596684 129.655177,15.7804459 C134.547307,24.98239 99.5091731,27.727033 96.1053516,26.973694 C88.1791551,25.2194559 80.8210029,18.6771523 72.7982898,19.9221939 C68.4233053,20.601146 67.4222083,27.2562197 66.4954438,31.5688437 C64.2917907,41.8233665 67.4006067,53.127762 63.563947,62.8934664 C62.1348236,66.5311092 62.8757998,50.4556099 56.5927731,52.3488414 C50.3862708,54.6931745 49.4150806,60.8429869 53.6792024,70.7982786 C61.0090953,87.9111159 75.3015585,64.9753099 70.8678371,94.4608288 C70.0548812,99.8672185 62.4335328,103.959395 60.542093,109.091193 C59.4236712,112.125661 60.1744485,115.914358 61.8105045,118.706026 C64.3959409,123.117658 68.5715051,126.465977 72.5868879,129.643705 C83.2133923,138.053399 104.253157,117.205192 105.229731,111.648582 C106.109017,106.645535 90.8595006,119.375129 86.5242156,115.492604 C82.1889306,111.61008 83.5500802,97.8813701 79.8332409,102.883223 C76.1164015,107.885076 90.9671307,110.469832 96.1053516,109.091193 C101.243573,107.712553 110.923465,102.384231 117.71683,96.3055452 C120.97154,93.3932396 122.572362,83.4166576 122.846842,79.0673405 C123.05517,75.7662561 122.397579,72.2086517 120.668891,69.3845824 C113.104413,57.0268835 110.747323,73.306316 110.662249,73.6851059 C108.473421,83.4308014 117.078784,72.0513931 118.836173,69.5637355 C124.553089,61.471201 129.797533,46.411098 134.281299,37.581086 L122.846842,15.7804459"/>
    <path stroke="#C27D07" stroke-linecap="round" stroke-linejoin="round" d="M2.93824455 84.4603083C-.150479804 88.1866906-.150479804 91.6188468 2.93824455 94.756777 25.3634138 66.0940018 9.97637689 84.9220391 2.93824455 108.265186-.0296739635 118.108786 16.5317105 92.7636184 22.6129703 84.4603083 26.886061 78.6258599 34.1142191 68.8818249 40.8027519 66.0940018 46.3682531 63.7742655 29.5220566 79.8535242 35.4739573 78.870735 43.9337406 77.4738394 16.5845047 94.2118882 19.8538329 102.108199 24.0786863 112.31236 71.4572448 55.042745 33.9256353 116.115152 29.3250575 123.601331 28.137823 129.214946 30.3639319 132.955997 24.7114739 119.439958 43.3345363 122.157567 46.3427614 127.34442 52.5600653 138.064444 56.7404913 157.462786 48.4589734 166.317932 33.9256353 181.857936 28.6876549 226.273961 54.6121119 216.585611 66.0819726 212.299156 79.073515 214.260355 93.5867389 222.469207M140.465534 128.610761C135.382701 127.133973 133.085 118.787018 140.535594 120.372598 149.961532 122.378556 145.378498 137.808128 135.82342 136.409764 130.22703 135.590745 129.513334 123.191793 131.013402 119.79026 131.869475 117.849039 133.809209 116.382839 135.760607 115.53582 136.881209 115.049415 138.169239 115.952922 139.373556 116.161473"/>
    <path stroke="#7E0000" stroke-linecap="round" stroke-linejoin="round" d="M83.9917012,177.201646 C104.883771,211.940677 78.0201594,170.112393 87.7683471,173.636275 C94.5893113,176.101993 92.6953477,192.378467 99.9127634,191.631461 C106.30361,190.970006 90.6318624,170.196948 96.5327944,172.729152 C103.724185,175.815116 98.4730651,191.675534 105.884042,194.193852 C111.917136,196.243954 97.6375183,176.223409 103.935865,175.244784 C111.031437,174.142287 112.59845,198.356961 116.732803,192.508192 C121.545146,185.700287 105.632344,176.896553 108.381463,168.955703 C112.497894,157.065368 112.462113,153.461984 119.974287,187.385748 C126.811498,218.261481 108.13227,178.621156 120.93664,181.250972 C124.906417,182.066302 205.09512,150.950142 209.151764,135.29783 C209.74721,133.000338 178.494336,133.000338 182.468254,128.653836 C186.442173,124.307333 188.379431,141.22429 193.356287,137.242434 C198.333143,133.260579 186.263865,131.285616 186.618356,111.591811 C187.004844,90.1203999 165.561396,105.839827 154.965785,103.234921"/>
    <path stroke="#7E0000" d="M122.969911,70.5939394 C124.94625,70.5939394 126.548389,68.9940618 126.548389,67.0205128 C126.548389,65.0469638 124.94625,63.4470862 122.969911,63.4470862"/>
    <path stroke="#7E0000" stroke-linecap="round" stroke-linejoin="round" d="M52.1327801,57.7157006 C55.5717924,57.5358989 57.7645375,58.6505601 58.7110154,61.0596842"/>
    <path stroke="#7E0000" d="M123.697355,63.5029188 C123.479738,59.5074778 125.709127,57.6265097 130.385524,57.8600145"/>
  </g>
</svg>
