<svg xmlns="http://www.w3.org/2000/svg" width="52" height="38" viewBox="0 0 52 38">
  <defs>
    <linearGradient id="email-a" x1="50%" x2="50%" y1="0%" y2="100%">
      <stop offset="0%" stop-color="#500C98"/>
      <stop offset="100%" stop-color="#3F2C4E"/>
    </linearGradient>
  </defs>
  <g fill="none" fill-rule="evenodd">
    <rect width="6" height="13" x="23.5" y="24.5" stroke="#3F2C4E"/>
    <path fill="#E7F0FF" stroke="#3F2C4E" d="M39.5 35.5L12.5 35.5C11.9477153 35.5 11.5 35.9477153 11.5 36.5 11.5 37.0522847 11.9477153 37.5 12.5 37.5L39.5 37.5C40.0522847 37.5 40.5 37.0522847 40.5 36.5 40.5 35.9477153 40.0522847 35.5 39.5 35.5zM1.98642895 25.5L50.013571 25.5C50.8347625 25.5 51.5 24.8363047 51.5 24.0181761L51.5 1.98182386C51.5 1.16369526 50.8347625.5 50.013571.5L1.98642895.5C1.16523746.5.5 1.16369526.5 1.98182386L.5 24.0181761C.5 24.8363047 1.16523746 25.5 1.98642895 25.5z"/>
    <rect width="48" height="22" x="2" y="2" fill="url(#email-a)"/>
  </g>
</svg>
