<svg xmlns="http://www.w3.org/2000/svg" width="68" height="68" viewBox="0 0 68 68">
  <defs>
    <linearGradient id="group-20-a" x1="50%" x2="50%" y1="0%" y2="100%">
      <stop offset="0%" stop-color="#500C98"/>
      <stop offset="100%" stop-color="#3F2C4E"/>
    </linearGradient>
  </defs>
  <g fill="none" fill-rule="evenodd" transform="translate(2 2)">
    <rect width="66" height="66" x="-1" y="-1" fill="#E7F0FF" stroke="#402D4F" stroke-width="2" rx="7"/>
    <g transform="translate(10 3)">
      <path stroke="#3F2C4E" d="M35.5663303,46.7290647 C31.3902182,37.4476123 23.5499089,23.330953 12.0488864,4.38827922 L9.60641361,5.77285329 C8.81701682,6.22034173 8.3320713,7.06043489 8.33936699,7.96781572 L8.65463859,47.178819 C8.66551025,48.5309497 9.74949864,49.6293835 11.1013669,49.6581528 L31.8790931,50.1003271 C32.7207619,50.1182388 33.5149265,49.7113361 33.9920366,49.0177273 L35.5663303,46.7290647 Z" transform="rotate(-20 21.988 27.157)"/>
      <path fill="#E7F0FF" stroke="#3F2C4E" d="M10.4114573,6.08934583 L10.4114573,45.0893458 C10.4114573,46.4700577 11.5307454,47.5893458 12.9114573,47.5893458 L32.9114573,47.5893458 C34.2921692,47.5893458 35.4114573,46.4700577 35.4114573,45.0893458 L35.4114573,6.08934583 C35.4114573,4.70863396 34.2921692,3.58934583 32.9114573,3.58934583 L12.9114573,3.58934583 C11.5307454,3.58934583 10.4114573,4.70863396 10.4114573,6.08934583 Z" transform="rotate(-20 22.911 25.59)"/>
      <rect width="22.083" height="41.436" x="12.058" y="4.746" fill="url(#group-20-a)" rx="2" transform="rotate(-20 23.1 25.464)"/>
    </g>
  </g>
</svg>
