<svg xmlns="http://www.w3.org/2000/svg" width="26" height="26" viewBox="0 0 26 26">
  <defs>
    <linearGradient id="linkedin-a" x1="50%" x2="50%" y1="0%" y2="100%">
      <stop offset="0%" stop-color="#500C98"/>
      <stop offset="100%" stop-color="#3F2C4E"/>
    </linearGradient>
  </defs>
  <g fill="url(#linkedin-a)" fill-rule="evenodd">
    <path d="M3.098 0C4.807 0 6.192 1.388 6.192 3.095 6.192 4.804 4.807 6.191 3.098 6.191 1.383 6.191 0 4.804 0 3.095 0 1.388 1.383 0 3.098 0zM.424 25.72L5.769 25.72 5.769 8.541.424 8.541.424 25.72zM9 8.428L14.118 8.428 14.118 10.775 14.192 10.775C14.904 9.424 16.646 8 19.243 8 24.646 8 25.645 11.557 25.645 16.184L25.645 25.607 20.311 25.607 20.311 17.253C20.311 15.261 20.272 12.698 17.536 12.698 14.757 12.698 14.333 14.867 14.333 17.109L14.333 25.607 9 25.607 9 8.428"/>
  </g>
</svg>
